<?xml version="1.0" ?><!DOCTYPE svg  PUBLIC '-//W3C//DTD SVG 1.1//EN'  'http://www.w3.org/Graphics/SVG/1.1/DTD/svg11.dtd'><svg height="100%" style="fill-rule:evenodd;clip-rule:evenodd;stroke-linejoin:round;stroke-miterlimit:1.41421;" version="1.1" viewBox="0 0 100 100" width="100%" xml:space="preserve" xmlns="http://www.w3.org/2000/svg" xmlns:xlink="http://www.w3.org/1999/xlink"><path d="M69.636,60.752c0.738,0.028 1.476,0.044 2.212,0.085c0.782,0.043 1.537,0.227 2.263,0.516c0.508,0.203 0.977,0.481 1.359,0.881c0.764,0.8 0.983,1.739 0.679,2.798c-0.185,0.646 -0.534,1.204 -0.969,1.71c-0.483,0.563 -1.036,1.05 -1.64,1.48c-0.985,0.702 -2.05,1.257 -3.163,1.727c-1.725,0.729 -3.517,1.225 -5.347,1.6c-0.304,0.063 -0.609,0.125 -0.915,0.176c-0.693,0.116 -1.389,0.154 -2.09,0.086c-0.475,-0.046 -0.908,-0.205 -1.293,-0.486c-0.717,-0.524 -0.938,-1.349 -0.6,-2.172c0.136,-0.331 0.334,-0.615 0.593,-0.854c0.656,-0.608 1.444,-0.89 2.33,-0.917c0.076,-0.002 0.152,0.024 0.229,0.038c0.176,0.032 0.342,0.214 0.367,0.403c0.026,0.19 -0.096,0.409 -0.273,0.464c-0.259,0.08 -0.52,0.156 -0.783,0.219c-0.308,0.074 -0.595,0.197 -0.833,0.4c-0.174,0.149 -0.33,0.328 -0.457,0.519c-0.241,0.36 -0.093,0.803 0.29,0.964c0.404,0.17 0.824,0.228 1.255,0.171c0.347,-0.045 0.692,-0.105 1.033,-0.18c1.825,-0.399 3.611,-0.923 5.329,-1.661c0.894,-0.384 1.767,-0.812 2.568,-1.366c0.51,-0.352 0.996,-0.742 1.472,-1.14c0.358,-0.3 0.653,-0.667 0.882,-1.077c0.113,-0.2 0.205,-0.42 0.261,-0.643c0.105,-0.415 -0.03,-0.766 -0.367,-1.033c-0.311,-0.245 -0.671,-0.398 -1.05,-0.486c-0.567,-0.131 -1.138,-0.246 -1.726,-0.258c-1.244,-0.025 -2.483,0.006 -3.724,0.121c-3.914,0.364 -7.765,1.084 -11.59,1.969c-1.324,0.306 -2.628,0.69 -3.902,1.167c-0.875,0.326 -1.726,0.704 -2.526,1.189c-0.467,0.282 -0.918,0.59 -1.284,0.998c-0.206,0.229 -0.399,0.479 -0.547,0.748c-0.269,0.488 -0.171,1.104 0.197,1.521c0.399,0.452 0.912,0.721 1.48,0.882c0.64,0.181 1.291,0.265 1.96,0.173c0.185,-0.025 0.386,0.001 0.57,0.044c0.268,0.062 0.372,0.474 0.181,0.664c-0.055,0.054 -0.111,0.109 -0.175,0.152c-0.063,0.043 -0.133,0.09 -0.206,0.103c-1.252,0.216 -2.476,0.174 -3.643,-0.396c-0.351,-0.172 -0.674,-0.384 -0.959,-0.653c-0.895,-0.846 -1.125,-1.967 -0.621,-3.087c0.241,-0.539 0.601,-0.996 1.025,-1.404c0.563,-0.543 1.201,-0.985 1.876,-1.374c1.011,-0.584 2.08,-1.045 3.174,-1.451c1.788,-0.663 3.63,-1.138 5.48,-1.579c2.343,-0.558 4.708,-1.006 7.09,-1.362c1.474,-0.22 2.854,-0.332 4.528,-0.389" style="fill:#1e1c1a;fill-rule:nonzero;"/><path d="M64.166,46.89c0.37,-0.03 0.801,-0.028 1.217,-0.105c2.221,-0.411 4.048,-1.498 5.467,-3.258c0.317,-0.393 0.57,-0.828 0.785,-1.287c0.166,-0.357 0.247,-0.732 0.312,-1.115c0.054,-0.317 -0.004,-0.623 -0.121,-0.91c-0.155,-0.384 -0.437,-0.634 -0.869,-0.674c-0.509,-0.047 -1.002,0.035 -1.487,0.19c-0.592,0.19 -1.158,0.44 -1.707,0.729c-1.553,0.818 -2.963,1.835 -4.227,3.05c-0.334,0.322 -0.649,0.667 -0.946,1.024c-0.222,0.266 -0.413,0.561 -0.596,0.856c-0.1,0.162 -0.165,0.349 -0.228,0.53c-0.102,0.291 0.022,0.561 0.288,0.665c0.326,0.128 0.657,0.232 1.011,0.249c0.348,0.016 0.696,0.035 1.101,0.056M63.504,48.808c-0.299,-0.03 -0.764,-0.059 -1.224,-0.124c-0.503,-0.071 -0.979,-0.241 -1.415,-0.504c-1.021,-0.616 -1.294,-1.757 -1.007,-2.611c0.137,-0.407 0.301,-0.795 0.529,-1.159c0.309,-0.496 0.674,-0.948 1.088,-1.358c1.958,-1.942 4.242,-3.365 6.844,-4.275c0.774,-0.271 1.57,-0.396 2.397,-0.379c1.13,0.025 2.136,0.922 2.35,1.915c0.099,0.462 0.141,0.913 0.065,1.381c-0.156,0.977 -0.541,1.86 -1.09,2.67c-1.379,2.035 -3.261,3.391 -5.614,4.092c-0.812,0.241 -1.953,0.375 -2.923,0.352" style="fill:#1e1c1a;fill-rule:nonzero;"/><path d="M14.289,36.855c-0.211,-0.015 -0.417,-0.28 -0.373,-0.493c0.023,-0.113 0.035,-0.235 0.086,-0.335c0.521,-1.013 1.214,-1.884 2.135,-2.564c0.347,-0.256 0.73,-0.438 1.148,-0.541c0.356,-0.089 0.691,-0.028 1.008,0.151c0.379,0.213 0.522,0.76 0.275,1.111c-0.11,0.157 -0.238,0.311 -0.388,0.428c-0.304,0.238 -0.619,0.466 -0.947,0.669c-0.79,0.489 -1.59,0.961 -2.387,1.438c-0.168,0.1 -0.344,0.177 -0.557,0.136" style="fill:#1e1c1a;fill-rule:nonzero;"/><path d="M27.302,63.951c-0.038,-0.068 -0.061,-0.152 -0.116,-0.197c-0.15,-0.121 -0.31,-0.229 -0.472,-0.334c-0.625,-0.406 -0.671,-0.407 -1.232,-0.013c-1.121,0.786 -2.067,1.746 -2.839,2.876c-0.439,0.641 -0.809,1.318 -1.071,2.052c-0.132,0.369 -0.215,0.746 -0.156,1.137c0.022,0.15 0.084,0.294 0.139,0.437c0.051,0.135 0.295,0.2 0.379,0.107c0.078,-0.086 0.158,-0.17 0.23,-0.26c0.579,-0.726 1.14,-1.467 1.737,-2.177c0.898,-1.067 1.881,-2.055 2.892,-3.016c0.192,-0.183 0.428,-0.335 0.509,-0.612M83.632,62.55c-0.148,0.591 -0.278,1.153 -0.433,1.709c-0.061,0.221 -0.197,0.422 -0.26,0.643c-0.026,0.091 0.021,0.234 0.086,0.313c0.096,0.116 0.236,0.197 0.359,0.29c1.668,1.261 3.271,2.593 4.656,4.17c0.05,0.056 0.114,0.114 0.182,0.139c0.061,0.022 0.14,0.009 0.207,-0.007c0.027,-0.006 0.056,-0.057 0.061,-0.091c0.015,-0.112 0.042,-0.228 0.026,-0.337c-0.108,-0.737 -0.391,-1.412 -0.744,-2.06c-0.743,-1.366 -1.658,-2.608 -2.744,-3.721c-0.35,-0.358 -0.728,-0.69 -1.109,-1.017c-0.066,-0.057 -0.209,-0.025 -0.287,-0.031M80.681,67.803c0.123,0.188 0.209,0.312 0.288,0.439c0.081,0.131 0.156,0.267 0.235,0.4c0.079,0.133 0.156,0.268 0.241,0.397c0.752,1.147 1.691,2.112 2.824,2.887c0.417,0.285 0.857,0.528 1.334,0.697c0.443,0.157 0.897,0.234 1.368,0.13c0.181,-0.04 0.315,-0.265 0.241,-0.441c-0.06,-0.142 -0.12,-0.285 -0.195,-0.419c-0.366,-0.642 -0.829,-1.215 -1.318,-1.765c-1.056,-1.187 -2.203,-2.284 -3.394,-3.335c-0.058,-0.051 -0.122,-0.095 -0.183,-0.142c-0.108,-0.083 -0.318,-0.064 -0.421,0.047c-0.317,0.339 -0.629,0.681 -1.02,1.105M34.942,66.796c-0.206,-0.055 -0.331,0.017 -0.423,0.153c-0.437,0.641 -0.895,1.269 -1.303,1.928c-0.961,1.551 -1.836,3.148 -2.508,4.852c-0.229,0.58 -0.41,1.171 -0.536,1.779c-0.03,0.146 -0.004,0.304 0.002,0.456c0.004,0.091 0.192,0.182 0.278,0.134c0.134,-0.075 0.291,-0.131 0.393,-0.239c0.373,-0.393 0.749,-0.788 1.084,-1.213c0.503,-0.64 0.965,-1.314 1.46,-1.961c0.732,-0.957 1.508,-1.875 2.468,-2.619c0.089,-0.069 0.15,-0.173 0.243,-0.283c-0.571,-0.93 -1.069,-1.891 -1.158,-2.987M26.445,28.824l0,-0.013c0.116,0 0.233,-0.009 0.348,0.002c1.013,0.095 1.901,-0.26 2.745,-0.766c1.07,-0.642 2.027,-1.423 2.842,-2.369c0.227,-0.263 0.425,-0.552 0.622,-0.838c0.087,-0.126 0.143,-0.274 0.207,-0.414c0.09,-0.196 -0.019,-0.407 -0.22,-0.435c-1.389,-0.193 -2.696,0.079 -3.935,0.708c-1.633,0.829 -2.877,2.072 -3.814,3.635c-0.039,0.065 -0.052,0.145 -0.081,0.216c-0.041,0.102 0.034,0.272 0.13,0.273c0.385,0.003 0.77,0.001 1.156,0.001M18.52,29.825c0.001,-0.005 0.001,-0.01 0.001,-0.014c0.464,0 0.929,0.001 1.393,-0.001c0.587,-0.003 1.151,-0.148 1.713,-0.291c0.186,-0.047 0.365,-0.129 0.542,-0.207c0.537,-0.236 0.635,-0.546 0.29,-0.985c-0.214,-0.273 -0.448,-0.533 -0.697,-0.774c-0.222,-0.214 -0.47,-0.405 -0.72,-0.586c-1.369,-0.989 -2.889,-1.646 -4.538,-1.99c-0.76,-0.159 -1.537,-0.176 -2.313,-0.091c-0.314,0.034 -0.605,0.123 -0.873,0.289c-0.33,0.203 -0.503,0.626 -0.414,1.007c0.116,0.498 0.342,0.944 0.639,1.356c0.409,0.57 0.918,1.044 1.443,1.505c0.486,0.426 1.038,0.667 1.678,0.701c0.619,0.033 1.238,0.054 1.856,0.081M15.423,46.78c1.2,-0.071 2.403,-0.34 3.522,-0.937c0.114,-0.061 0.218,-0.266 0.199,-0.395c-0.017,-0.115 -0.026,-0.233 -0.058,-0.344c-0.132,-0.451 -0.192,-0.91 -0.223,-1.378c-0.105,-1.624 0.214,-3.173 0.825,-4.667c1.112,-2.719 2.847,-4.979 5.111,-6.841c0.239,-0.197 0.479,-0.393 0.716,-0.591c0.069,-0.058 0.012,-0.256 -0.08,-0.29c-0.551,-0.204 -1.135,-0.246 -1.708,-0.343c-0.105,-0.017 -0.227,0.035 -0.335,0.074c-0.109,0.039 -0.207,0.108 -0.314,0.152c-2.242,0.924 -4.492,1.212 -6.757,0.073c-0.26,-0.131 -0.526,-0.118 -0.793,-0.041c-1.459,0.42 -2.892,0.906 -4.251,1.591c-0.766,0.387 -1.494,0.831 -2.164,1.368c-0.52,0.416 -0.983,0.888 -1.33,1.458c-0.437,0.719 -0.656,1.5 -0.489,2.342c0.326,1.648 0.84,3.233 1.694,4.692c0.574,0.982 1.283,1.851 2.176,2.564c1.229,0.981 2.639,1.458 4.259,1.513M40.198,57.167c0.027,0.141 0.055,0.253 0.07,0.367c0.046,0.342 -0.048,0.577 -0.274,0.7c-0.234,0.128 -0.569,0.111 -0.765,-0.075c-0.166,-0.159 -0.334,-0.332 -0.443,-0.531c-0.303,-0.554 -0.104,-1.191 0.434,-1.512c0.341,-0.202 0.715,-0.316 1.1,-0.365c0.966,-0.125 1.938,-0.151 2.907,-0.029c0.545,0.069 1.063,0.239 1.516,0.562c0.67,0.481 0.913,1.292 0.631,2.071c-0.162,0.446 -0.421,0.829 -0.746,1.172c-0.541,0.572 -1.178,1.01 -1.879,1.359c-1.49,0.742 -3.077,1.111 -4.732,1.056c-1.993,-0.067 -3.58,-0.984 -4.707,-2.618c-0.952,-1.382 -0.938,-2.84 -0.098,-4.283c0.376,-0.645 0.894,-1.175 1.471,-1.643c0.574,-0.467 1.195,-0.865 1.849,-1.213c1.412,-0.752 2.891,-1.345 4.431,-1.765c1.587,-0.434 3.201,-0.636 4.843,-0.319c2.162,0.417 3.806,1.538 4.717,3.582c0.533,1.198 0.666,2.46 0.426,3.765c-0.299,1.618 -1.033,3 -2.164,4.181c-1.098,1.145 -2.419,1.95 -3.91,2.462c-2.582,0.885 -5.217,1.535 -7.956,1.677c-0.733,0.038 -0.854,0.152 -0.809,0.932c0.027,0.477 0.181,0.914 0.394,1.331c0.267,0.523 0.623,0.984 1.028,1.408c0.733,0.765 1.582,1.376 2.497,1.9c1.219,0.699 2.513,1.223 3.855,1.633c2.089,0.639 4.229,0.989 6.402,1.198c2.762,0.266 5.515,0.161 8.266,-0.089c1.508,-0.136 3.008,-0.36 4.502,-0.619c2.8,-0.486 5.549,-1.161 8.225,-2.124c2.053,-0.739 4.031,-1.637 5.888,-2.788c1.194,-0.74 2.312,-1.575 3.291,-2.588c0.461,-0.477 0.875,-0.989 1.218,-1.559c0.263,-0.437 0.457,-0.901 0.577,-1.395c0.197,-0.815 0.011,-1.55 -0.524,-2.179c-0.435,-0.511 -0.951,-0.861 -1.665,-0.965c-1.589,-0.231 -2.677,-1.163 -3.314,-2.624c-0.233,-0.537 -0.402,-1.095 -0.472,-1.678c-0.321,-2.671 0.196,-5.181 1.48,-7.536c0.336,-0.616 0.752,-1.179 1.258,-1.671c0.451,-0.438 0.956,-0.792 1.555,-1.001c0.647,-0.226 1.302,-0.244 1.945,-0.025c0.82,0.28 1.535,0.739 2.136,1.372c1.015,1.07 0.983,2.55 0.343,3.553c-0.476,0.745 -1.116,1.288 -1.941,1.606c-0.447,0.172 -0.911,0.199 -1.377,0.105c-0.354,-0.071 -0.645,-0.256 -0.86,-0.554c-0.155,-0.213 -0.154,-0.576 0.01,-0.761c0.138,-0.155 0.436,-0.223 0.643,-0.134c0.143,0.061 0.27,0.164 0.416,0.206c0.144,0.041 0.317,0.073 0.454,0.032c0.88,-0.264 1.477,-0.826 1.736,-1.723c0.066,-0.233 0.045,-0.458 -0.025,-0.687c-0.081,-0.268 -0.225,-0.495 -0.418,-0.691c-0.444,-0.454 -0.981,-0.761 -1.578,-0.962c-0.303,-0.103 -0.611,-0.084 -0.914,0.028c-0.449,0.166 -0.816,0.447 -1.135,0.795c-0.369,0.404 -0.674,0.855 -0.922,1.341c-0.982,1.919 -1.371,3.954 -1.162,6.098c0.065,0.662 0.254,1.296 0.592,1.876c0.303,0.521 0.725,0.922 1.306,1.103c0.291,0.091 0.608,0.127 0.915,0.136c1.183,0.036 2.316,-0.22 3.417,-0.631c2.355,-0.88 4.273,-2.36 5.854,-4.292c1.12,-1.367 1.97,-2.884 2.454,-4.594c0.389,-1.372 0.504,-2.749 0.122,-4.142c-0.227,-0.829 -0.557,-1.615 -0.992,-2.356c-0.735,-1.253 -1.657,-2.353 -2.776,-3.276c-3.586,-2.955 -7.687,-4.107 -12.292,-3.462c-0.345,0.048 -0.694,0.09 -1.042,0.096c-0.427,0.007 -0.815,-0.344 -0.896,-0.776c-0.069,-0.365 0,-0.704 0.278,-0.962c0.256,-0.238 0.54,-0.444 0.803,-0.674c0.441,-0.386 0.834,-0.812 1.115,-1.334c0.349,-0.65 0.368,-1.471 -0.313,-2.134c-0.396,-0.386 -0.857,-0.669 -1.363,-0.88c-0.939,-0.391 -1.919,-0.628 -2.933,-0.712c-2.265,-0.188 -4.502,0.011 -6.715,0.515c-0.037,0.009 -0.073,0.026 -0.111,0.035c-0.127,0.03 -0.279,0.232 -0.26,0.348c0.026,0.153 0.043,0.309 0.083,0.458c0.204,0.778 0.125,1.542 -0.1,2.3c-0.069,0.231 -0.19,0.422 -0.39,0.56c-0.136,0.092 -0.287,0.121 -0.443,0.083c-0.165,-0.041 -0.351,-0.262 -0.349,-0.425c0.005,-0.31 0.014,-0.62 0.041,-0.929c0.077,-0.897 -0.196,-1.684 -0.725,-2.397c-0.304,-0.408 -0.662,-0.762 -1.054,-1.084c-0.512,-0.422 -1.072,-0.773 -1.658,-1.079c-0.724,-0.379 -1.476,-0.694 -2.249,-0.96c-2.52,-0.867 -5.126,-1.261 -7.777,-1.368c-1.594,-0.064 -3.185,-0.021 -4.772,0.181c-1.704,0.217 -3.368,0.577 -4.976,1.183c-1.503,0.566 -2.895,1.327 -4.129,2.362c-0.717,0.601 -1.37,1.265 -1.888,2.051c-0.064,0.096 -0.044,0.242 0.05,0.302c0.261,0.166 0.53,0.321 0.787,0.495c1.068,0.724 1.805,1.704 2.188,2.934c0.33,1.056 0.386,2.134 0.159,3.224c-0.477,2.294 -1.663,4.164 -3.397,5.706c-0.437,0.389 -0.932,0.694 -1.46,0.953c-0.868,0.426 -1.784,0.557 -2.724,0.406c-1.226,-0.197 -2.176,-0.845 -2.723,-1.971c-0.554,-1.141 -0.478,-2.281 0.307,-3.296c0.734,-0.948 1.715,-1.57 2.881,-1.871c0.508,-0.131 1.004,-0.06 1.475,0.174c0.854,0.427 1.313,1.562 0.801,2.49c-0.071,0.128 -0.209,0.228 -0.334,0.312c-0.18,0.12 -0.367,0.077 -0.543,-0.037c-0.149,-0.096 -0.2,-0.248 -0.184,-0.401c0.02,-0.191 0.104,-0.374 0.133,-0.564c0.058,-0.368 -0.312,-0.78 -0.693,-0.78c-0.115,0 -0.234,0.009 -0.344,0.04c-0.898,0.253 -1.577,0.81 -2.121,1.549c-0.046,0.062 -0.073,0.137 -0.107,0.207c-0.198,0.408 -0.216,0.825 -0.04,1.241c0.335,0.788 0.949,1.206 1.788,1.3c0.555,0.062 1.084,-0.051 1.582,-0.3c0.562,-0.281 1.051,-0.663 1.48,-1.12c0.833,-0.889 1.482,-1.899 1.927,-3.032c0.376,-0.959 0.508,-1.952 0.359,-2.976c-0.129,-0.883 -0.535,-1.618 -1.207,-2.199c-0.572,-0.495 -1.247,-0.789 -1.995,-0.888c-0.933,-0.124 -1.857,-0.075 -2.777,0.144c-1.227,0.292 -2.351,0.805 -3.382,1.521c-2.281,1.588 -4.029,3.635 -5.239,6.139c-0.495,1.023 -0.829,2.097 -0.955,3.226c-0.231,2.087 0.423,3.828 2.077,5.16c0.578,0.466 1.217,0.834 1.903,1.118c0.323,0.134 0.648,0.262 0.968,0.404c0.103,0.046 0.199,0.119 0.281,0.198c0.117,0.114 0.158,0.268 0.14,0.427c-0.018,0.162 -0.243,0.365 -0.409,0.359c-0.231,-0.009 -0.473,-0.002 -0.688,-0.071c-0.48,-0.154 -0.946,-0.35 -1.418,-0.53c-0.145,-0.055 -0.286,-0.138 -0.435,-0.158c-0.095,-0.012 -0.249,0.04 -0.296,0.114c-0.122,0.194 -0.232,0.408 -0.288,0.629c-0.213,0.832 -0.325,1.68 -0.246,2.541c0.26,2.845 1.338,5.336 3.304,7.416c2.151,2.276 4.855,3.435 7.928,3.786c0.732,0.084 1.474,0.078 2.211,0.113c0.764,-0.19 1.549,-0.006 2.316,-0.135c0.077,-0.013 0.155,-0.016 0.232,-0.027c2.16,-0.316 4.266,-0.846 6.318,-1.588c0.809,-0.292 1.563,-0.692 2.25,-1.212c0.881,-0.667 1.598,-1.475 2.08,-2.476c0.428,-0.891 0.669,-1.827 0.575,-2.821c-0.145,-1.539 -0.86,-2.723 -2.243,-3.46c-0.483,-0.257 -0.999,-0.439 -1.544,-0.504c-1.01,-0.12 -2.018,-0.108 -3.015,0.11c-1.875,0.41 -3.636,1.115 -5.304,2.058c-0.576,0.325 -1.128,0.693 -1.598,1.164c-0.245,0.246 -0.485,0.508 -0.673,0.799c-0.494,0.758 -0.482,1.548 -0.005,2.306c0.581,0.923 1.433,1.515 2.45,1.878c0.109,0.039 0.226,0.062 0.341,0.076c1.878,0.229 3.642,-0.086 5.24,-1.134c0.321,-0.211 0.602,-0.487 0.887,-0.749c0.112,-0.102 0.19,-0.245 0.271,-0.376c0.213,-0.342 0.107,-0.733 -0.26,-0.87c-0.288,-0.108 -0.59,-0.197 -0.894,-0.242c-0.889,-0.132 -1.775,-0.145 -2.649,0.163M82.903,60.006c0.284,-0.013 0.534,0.099 0.772,0.229c1.828,1.002 3.43,2.277 4.7,3.943c0.834,1.094 1.444,2.302 1.793,3.635c0.168,0.642 0.247,1.296 0.177,1.963c-0.059,0.563 -0.245,1.055 -0.69,1.43c-0.114,0.096 -0.213,0.212 -0.328,0.328c0.066,0.288 0.143,0.548 0.184,0.814c0.14,0.913 -0.233,1.717 -1.034,2.169c-0.731,0.412 -1.515,0.588 -2.358,0.445c-0.697,-0.12 -1.352,-0.351 -1.969,-0.694c-0.822,-0.457 -1.551,-1.036 -2.207,-1.705c-0.877,-0.894 -1.616,-1.889 -2.165,-3.019c-0.099,-0.202 -0.149,-0.444 -0.428,-0.563c-0.111,0.064 -0.252,0.128 -0.374,0.218c-2.883,2.116 -6.095,3.567 -9.479,4.658c-2.927,0.944 -5.922,1.592 -8.981,1.955c-2.203,0.262 -4.41,0.434 -6.628,0.383c-3.159,-0.073 -6.277,-0.443 -9.318,-1.343c-1.269,-0.376 -2.503,-0.841 -3.692,-1.425c-1.084,-0.533 -2.111,-1.159 -3.05,-1.924c-0.179,-0.145 -0.335,-0.327 -0.625,-0.391c-0.093,0.072 -0.22,0.154 -0.329,0.256c-0.656,0.614 -1.213,1.313 -1.713,2.056c-0.456,0.678 -0.887,1.372 -1.353,2.041c-0.399,0.573 -0.816,1.136 -1.257,1.677c-0.345,0.425 -0.781,0.752 -1.285,0.984c-0.556,0.256 -1.13,0.288 -1.709,0.14c-0.87,-0.223 -1.478,-0.932 -1.576,-1.822c-0.065,-0.584 -0.029,-1.163 0.119,-1.735c0.224,-0.87 0.555,-1.698 0.949,-2.502c0.945,-1.926 2.109,-3.716 3.412,-5.417c0.165,-0.216 0.345,-0.421 0.504,-0.642c0.064,-0.089 0.089,-0.206 0.128,-0.3c-0.143,-0.188 -0.343,-0.209 -0.527,-0.239c-1.037,-0.173 -2.055,-0.414 -3.043,-0.779c-0.29,-0.108 -0.521,-0.008 -0.731,0.21c-1.701,1.767 -3.281,3.634 -4.665,5.662c-0.197,0.289 -0.381,0.59 -0.606,0.857c-1.11,1.319 -2.655,1.135 -3.582,-0.078c-0.618,-0.809 -0.851,-1.732 -0.673,-2.747c0.123,-0.697 0.39,-1.34 0.715,-1.963c0.901,-1.722 2.187,-3.105 3.749,-4.244c0.281,-0.205 0.573,-0.395 0.871,-0.6c-0.049,-0.13 -0.067,-0.249 -0.131,-0.331c-0.143,-0.184 -0.311,-0.348 -0.464,-0.524c-1.616,-1.86 -2.669,-3.997 -3.14,-6.415c-0.248,-1.271 -0.271,-2.552 -0.082,-3.83c0.062,-0.419 0.209,-0.827 0.336,-1.234c0.079,-0.257 0.195,-0.503 0.283,-0.725c-0.018,-0.203 -0.126,-0.314 -0.24,-0.42c-0.028,-0.027 -0.058,-0.052 -0.085,-0.08c-0.399,-0.422 -0.794,-0.847 -1.201,-1.261c-0.038,-0.039 -0.159,-0.033 -0.221,-0.005c-0.493,0.228 -0.973,0.486 -1.473,0.698c-1.312,0.557 -2.685,0.777 -4.104,0.653c-1.463,-0.128 -2.796,-0.637 -4.009,-1.458c-0.909,-0.616 -1.688,-1.37 -2.358,-2.238c-1.108,-1.437 -1.856,-3.049 -2.324,-4.794c-0.13,-0.486 -0.225,-0.984 -0.307,-1.482c-0.288,-1.723 0.203,-3.226 1.322,-4.542c0.637,-0.748 1.407,-1.334 2.248,-1.835c0.94,-0.559 1.939,-0.987 2.972,-1.334c0.588,-0.198 1.193,-0.346 1.789,-0.522c0.259,-0.077 0.516,-0.162 0.767,-0.26c0.028,-0.01 0.046,-0.158 0.015,-0.187c-0.251,-0.242 -0.517,-0.467 -0.774,-0.703c-0.604,-0.558 -1.128,-1.18 -1.493,-1.923c-0.227,-0.462 -0.333,-0.949 -0.318,-1.466c0.02,-0.667 0.305,-1.195 0.82,-1.604c0.37,-0.295 0.797,-0.477 1.254,-0.593c0.801,-0.204 1.614,-0.261 2.431,-0.18c2.328,0.233 4.46,1.011 6.381,2.353c0.512,0.357 0.979,0.766 1.389,1.239c0.151,0.175 0.305,0.347 0.469,0.533c0.115,-0.083 0.229,-0.131 0.29,-0.216c0.204,-0.284 0.379,-0.589 0.583,-0.873c0.967,-1.349 2.175,-2.424 3.662,-3.177c1.35,-0.684 2.775,-0.988 4.285,-0.874c0.194,0.015 0.39,0.027 0.578,0.071c0.935,0.216 1.501,1.073 1.348,2.019c-0.088,0.544 -0.289,1.045 -0.566,1.52c-0.434,0.743 -0.965,1.413 -1.576,2.015c-0.442,0.436 -0.914,0.841 -1.365,1.268c-0.04,0.039 -0.026,0.143 -0.022,0.216c0.001,0.023 0.046,0.06 0.074,0.063c0.501,0.054 1.003,0.083 1.445,0.074c0.268,-0.093 0.341,-0.286 0.438,-0.447c1.277,-2.12 3.06,-3.7 5.204,-4.896c1.781,-0.994 3.689,-1.648 5.678,-2.052c1.948,-0.395 3.92,-0.594 5.911,-0.499c2.972,0.141 5.862,0.678 8.623,1.821c0.864,0.357 1.698,0.77 2.49,1.268c0.96,0.603 1.837,1.304 2.562,2.185c0.12,0.146 0.262,0.275 0.379,0.395c0.399,-0.009 0.729,-0.122 1.064,-0.213c2.265,-0.611 4.564,-0.939 6.916,-0.817c1.172,0.061 2.313,0.27 3.414,0.683c0.698,0.262 1.343,0.614 1.905,1.107c0.662,0.582 1.109,1.29 1.265,2.172c0.07,0.388 0.089,0.773 -0.01,1.156c-0.106,0.412 -0.227,0.821 -0.341,1.232c-0.025,0.09 0.085,0.238 0.189,0.246c0.27,0.022 0.54,0.048 0.811,0.055c1.92,0.046 3.786,0.374 5.586,1.052c2.942,1.108 5.41,2.87 7.344,5.359c0.647,0.832 1.18,1.734 1.608,2.697c1.004,2.26 1.127,4.578 0.457,6.946c-0.492,1.742 -1.326,3.314 -2.418,4.751c-1.804,2.37 -4.05,4.173 -6.828,5.287c-0.686,0.276 -1.392,0.49 -2.116,0.642c-0.171,0.036 -0.268,0.135 -0.297,0.305c-0.003,0 -0.053,-0.037 -0.053,-0.037l0.033,0.045Z" style="fill:#1e1c1a;fill-rule:nonzero;"/></svg>