<svg id="レイヤー_1" data-name="レイヤー 1" xmlns="http://www.w3.org/2000/svg" xmlns:xlink="http://www.w3.org/1999/xlink" viewBox="0 0 841.89 595.28"><defs><style>.cls-1{fill:none;}.cls-2{fill:#fff;}.cls-3{fill:#15bde8;}.cls-4{fill:url(#名称未設定グラデーション_6);}.cls-5{fill:#e1f3fc;}.cls-6,.cls-7{opacity:0.63;}.cls-6{fill:url(#新規パターン);}.cls-7{fill:url(#新規パターン-3);}.cls-8{fill:url(#新規パターンスウォッチ_21);}.cls-9{fill:url(#新規パターンスウォッチ_21-3);}.cls-10{fill:#e0f1fa;}</style><linearGradient id="名称未設定グラデーション_6" x1="421" y1="1182.02" x2="421" y2="163.36" gradientUnits="userSpaceOnUse"><stop offset="0" stop-color="#fff"/><stop offset="0.47" stop-color="#f7fcfe"/><stop offset="1" stop-color="#78cbea"/></linearGradient><pattern id="新規パターン" data-name="新規パターン" width="17.01" height="17.01" patternTransform="translate(-43.43 2.14) rotate(30.07) scale(0.64)" patternUnits="userSpaceOnUse" viewBox="0 0 17.01 17.01"><rect class="cls-1" width="17.01" height="17.01"/><circle class="cls-2" cx="8.5" cy="8.5" r="3.63"/></pattern><pattern id="新規パターン-3" data-name="新規パターン" width="17.01" height="17.01" patternTransform="translate(-33 3.1) rotate(30.07) scale(0.64)" patternUnits="userSpaceOnUse" viewBox="0 0 17.01 17.01"><rect class="cls-1" width="17.01" height="17.01"/><circle class="cls-2" cx="8.5" cy="8.5" r="3.63"/></pattern><pattern id="新規パターンスウォッチ_21" data-name="新規パターンスウォッチ 21" width="9.31" height="9.31" patternTransform="matrix(0.49, 0.29, -0.29, 0.49, 6.61, 11.41)" patternUnits="userSpaceOnUse" viewBox="0 0 9.31 9.31"><rect class="cls-1" width="9.31" height="9.31"/><circle class="cls-3" cx="4.66" cy="4.66" r="1.99"/></pattern><pattern id="新規パターンスウォッチ_21-3" data-name="新規パターンスウォッチ 21" width="9.31" height="9.31" patternTransform="matrix(0.78, 0.45, -0.45, 0.78, 20.27, 15.41)" patternUnits="userSpaceOnUse" viewBox="0 0 9.31 9.31"><rect class="cls-1" width="9.31" height="9.31"/><circle class="cls-3" cx="4.66" cy="4.66" r="1.99"/></pattern></defs><title>sky2</title><rect class="cls-4" x="-8" y="-10" width="858" height="565"/><path class="cls-5" d="M434.7,517.21c0-1,.84-2,.79-2.9s-1.38-1.79-1.48-2.74,0-1.9-.1-2.84.38-2,.2-3-.42-1.87-.65-2.79-.39-1.88-.66-2.78-1.56-1.38-1.87-2.26-.52-1.79-.87-2.66-.6-1.76-1-2.61-.9-1.59-1.33-2.41.26-2.44-.21-3.24-2.19-.61-2.69-1.39-.95-1.53-1.48-2.28-.63-1.86-1.19-2.58-1.21-1.32-1.8-2-1.32-1.18-1.93-1.85-.63-2-1.27-2.67-2.06-.21-2.71-.82-.71-2-1.38-2.62-1-1.71-1.71-2.26-1.39-1.14-2.11-1.67-2.09.18-2.82-.32-1.31-1.23-2.06-1.69-1.38-1.13-2.14-1.57-1.38-1.19-2.15-1.6-1.4-1.19-2.18-1.56-1.81-.1-2.6-.45-1.78-.06-2.58-.38-1.61-.56-2.42-.84-1.67-.3-2.49-.55-1.35-1.73-2.17-2-1.6-.81-2.43-1-2,1.39-2.8,1.22-1.63-.42-2.47-.56-1.5-1.83-2.34-1.94-1.81,1.15-2.66,1.06-1.64-.81-2.49-.87-1.69,0-2.54,0-1.7-.48-2.55-.48-1.57.09-2.35.11-1.58-.1-2.35-.05-1.78,1.18-2.55,1.25c-.51-.78-.69-2.19-1.22-3s-1.12-1.46-1.67-2.21-1.1-1.48-1.67-2.21-.69-1.91-1.28-2.62-1.37-1.22-2-1.91-1.5-1-2.12-1.72-1.76-.68-2.4-1.33-.39-2.42-1-3.05-1.12-1.53-1.79-2.15-1.39-1.18-2.07-1.77-1.94-.31-2.64-.89-1.58-.81-2.29-1.36-1.27-1.32-2-1.85-1.63-.69-2.37-1.2-1.1-1.67-1.84-2.16-1.78-.37-2.53-.84-1.21-1.54-2-2-1.61-.68-2.39-1.11-1.79-.24-2.57-.65-1.51-.87-2.31-1.26-1.31-1.43-2.11-1.79-1.63-.62-2.43-1-1.29-1.66-2.1-2-1.76-.24-2.58-.55-1.83.1-2.65-.19-1.36-1.65-2.19-1.91-1.89.4-2.72.15-1.77,0-2.61-.19-1.37-2-2.21-2.17-1.92.89-2.77.7-1.58-.78-2.41-.95-1.54-1.17-2.37-1.31-1.72.09-2.56,0-1.67-.29-2.5-.4-1.78.84-2.61.75-1.6-1.27-2.43-1.35-1.72.33-2.56.28-1.68,0-2.52,0-1.68-.49-2.52-.5-1.69.23-2.53.23-1.7-.41-2.54-.39-1.63,1.52-2.47,1.56-1.67.14-2.5.2-1.71-.4-2.54-.33-1.66.31-2.5.41-1.72-.33-2.55-.21-1.77-.54-2.6-.41-1.46,1.83-2.29,2-1.74-.29-2.56-.11-1.68.24-2.5.43-1.78-.29-2.6-.08-1.57,1.16-2.38,1.39c-.32-.88,0-2.19-.34-3.05s-2-1-2.42-1.83.45-2.41,0-3.24-.88-1.65-1.32-2.45-1.18-1.42-1.65-2.2-.57-1.9-1.08-2.66-2.28-.4-2.81-1.13-.72-1.76-1.28-2.47-.59-2-1.17-2.64-1.24-1.3-1.84-2-.95-1.64-1.58-2.28-1.86-.48-2.51-1.1-.76-1.94-1.42-2.53-2-.12-2.71-.69-.95-1.73-1.65-2.27-1.25-1.3-2-1.82-1.78-.36-2.5-.84-1.65-.54-2.38-1-1.29-1.25-2-1.69-1-2-1.77-2.39-2,.33-2.75-.06-1.44-1-2.22-1.36-1.49-.91-2.28-1.25-1.5-.87-2.3-1.18-1.56-.76-2.36-1-1.83.28-2.64,0-1.71-.06-2.53-.3-1.32-1.85-2.15-2.06-1.88.91-2.71.72-1.61-.78-2.45-.95-1.69-.3-2.54-.44-1.64-.72-2.49-.83-1.68-.6-2.53-.69-1.7-.55-2.56-.62-1.77,1.15-2.63,1.12-1.7-.88-2.55-.89-1.72,1.12-2.57,1.13-1.73-.84-2.59-.79-1.75-.48-2.61-.42-1.65,1-2.51,1.1-1.69.3-2.54.42-1.66.54-2.51.68-1.82-.54-2.66-.38-1.66.55-2.5.74-1.53,1.16-2.36,1.38-1.61.63-2.44.88-1.91-.54-2.73-.27-1.3,1.78-2.11,2.08-2.14-1.06-2.94-.74-1.46,1.18-2.26,1.53-1.44,1.15-2.23,1.52-1.89,0-2.66.39-1.42,1.17-2.19,1.6-1.42,1.12-2.17,1.57-1.47,1-2.21,1.49-1.38,1.17-2.1,1.67-1.31,1.27-2,1.8-2,.14-2.69.7-1,1.75-1.68,2.34-1.85.49-2.51,1.1-1,1.68-1.64,2.31-.76,1.92-1.38,2.58-1.25,1.29-1.85,2-2.17.36-2.74,1.08-.43,2.16-1,2.89-.71,1.82-1.23,2.58-1.2,1.37-1.69,2.16-1.14,1.89-1.6,2.7c-.76-.25-1.91-.39-2.68-.63s-1.39-1-2.16-1.21-1.48-.69-2.25-.9-1.65.16-2.43,0-1.57-.21-2.35-.38-1.63-.53-2.46-.7-1.7-.06-2.54-.21-1.57-1.08-2.41-1.21-1.72.07-2.56,0-1.67-.27-2.52-.37-1.65-.62-2.5-.7-1.75.8-2.59.74-1.69,0-2.54,0-1.66-.9-2.51-.92-1.7.47-2.54.47-1.71-1.24-2.56-1.23-1.68,1-2.53,1.07-1.74-1.08-2.59-1-1.61,1.68-2.45,1.75-1.72-.28-2.56-.19-1.7.09-2.54.19-1.59,1-2.43,1.12-1.86-1.1-2.69-1-1.54,1.24-2.38,1.4-1.85-.78-2.69-.59-1.43,1.62-2.26,1.82-1.87-.62-2.69-.41-1.75.05-2.57.29-1.51,1.1-2.33,1.35-1.8-.11-2.61.17-1.6.72-2.41,1-1.33,1.55-2.13,1.86-2-.51-2.77-.18-1,2.3-1.83,2.65-1.61.56-2.39.92-1.51.86-2.29,1.25-1.87,0-2.64.37-1.45,1-2.21,1.43-1.56.77-2.31,1.22-1.31,1.27-2.05,1.73-1.94,0-2.67.52-1.52.89-2.24,1.4-.84,2.08-1.55,2.6-1.59.75-2.29,1.29-1.81.44-2.5,1-1.05,1.63-1.72,2.21-1,1.69-1.64,2.28-2.18,0-2.83.65-1.18,1.41-1.82,2-1.05,1.55-1.67,2.2-1.39,1.16-2,1.83-1.15,1.42-1.74,2.11-1.38,1.19-1.95,1.89-.88,1.7-1.43,2.43-.5,2-1,2.76-1.25,1.31-1.76,2.07-.51,1.93-1,2.7-2.31.53-2.78,1.33,0,2.27-.46,3.08-1.74,1.06-2.17,1.89-.88,1.66-1.28,2.5-.65,1.8-1,2.66-.75,1.73-1.1,2.6-.91,1.67-1.24,2.55.42,2.25.12,3.15-1.07,1.59-1.34,2.5-1,1.66-1.23,2.58.1,2.09-.12,3-1.1,1.74-1.28,2.69.3,2.09.14,3-.53,1.52-.66,2.48c-.87-.23-1.48-.21-2.37-.41s-1.75.13-2.59,0-1.57-1.13-2.41-1.25-1.81.89-2.65.8-1.67-.24-2.52-.3-1.69.22-2.54.19-1.68-.57-2.53-.57-1.73-1.17-2.58-1.14-1.67.95-2.52,1-1.73-.2-2.57-.1-1.69.31-2.53.44-1.63.73-2.46.89-1.67.36-2.5.56-1.77-.11-2.59.12-1.48,1.19-2.3,1.45-1.67.37-2.48.66-1.53.84-2.32,1.17-1.67.43-2.45.78-1.57.72-2.35,1.11-1.36,1.21-2.12,1.63-1.59.66-2.33,1.12-1.69.52-2.42,1-1.74.5-2.45,1-.78,2.12-1.47,2.67-1.51.88-2.18,1.46-1.78.56-2.43,1.18-.75,1.93-1.37,2.58-1.82.64-2.42,1.32-1.52,1.06-2.08,1.77,0,2.52-.54,3.26-1.91.75-2.41,1.52,0,2.29-.49,3.1-1.75,1-2.17,1.85-.84,1.68-1.22,2.53-.44,1.89-.78,2.77-.08,2-.37,2.89-1.86,1.32-2.11,2.23.84,2.14.65,3-.77,1.64-.91,2.52-1,1.68-1.1,2.57.38,1.91.33,2.81c-.1.2-.57-.28-.6-.06-.2,1.41.56,1.45.56,2.88s-1.11,1.42-1.11,2.84,1,1.43,1,2.85-.17,1.42-.17,2.85-.93,1.42-.93,2.84-.06,1.43-.06,2.85,1.35,1.42,1.35,2.85,0,1.42,0,2.85-.19,1.42-.19,2.85.41,1.42.41,2.84-.19,1.43-.19,2.85-1.19,1.42-1.19,2.85.63,1.42.63,2.85-.78,1.42-.78,2.85.24,1.42.24,2.85,0,1.42,0,2.84,1,1.43,1,2.85-.22,1.43-.22,2.85-.76,1.43-.76,2.85.59,1.43.59,2.85.59,1.43.59,2.85-1.19,1.43-1.19,2.85,1.38,1.43,1.38,2.85-1,1.43-1,2.85.24,1.43.24,2.85.3,1.43.3,2.85-.68,1.43-.68,2.85-.42,1.43-.42,2.85.48,1.43.48,2.85.92,1.42.92,2.85-.13,1.42-.13,2.85-.13,1.42-.13,2.85-1.21,1.42-1.21,2.84,1.62,1.43,1.62,2.86-.07,2.84-.07,2.84v2.86a6.3,6.3,0,0,0-.88,2.85c0,1.42.59,1.42.59,2.85s.25,1.43.25,2.85-1.25,1.43-1.25,2.85a6.52,6.52,0,0,0,.29,2.86v2.85a6.93,6.93,0,0,0-.48,2.85c0,1.43,1,1.43,1,2.85s-.07,1.43-.07,2.86-1,1.43-1,2.86.45,1.43.45,2.86-.6,1.91.3,2.92,1.32-.26,2.6-.26,1.27.4,2.54.4,1.28-.16,2.55-.16,1.27-.69,2.55-.69,1.27.57,2.54.57,1.27,1,2.55,1,1.27-.28,2.54-.28,1.27-1.29,2.55-1.29,1.27.88,2.54.88,1.27-1.15,2.54-1.15S-104,670-102.76,670s1.27-1.38,2.54-1.38,1.27-.19,2.55-.19,1.27,1.29,2.54,1.29,1.27-.37,2.54-.37A4.58,4.58,0,0,0-90,669h2.54c1.27.5,1.27,0,2.54,0s1.27.06,2.54.06,1.28-.2,2.55-.2,1.27,1.08,2.54,1.08,1.27-.27,2.54-.27,1.28-.69,2.55-.69,1.27,1.1,2.54,1.1,1.27-.34,2.55-.34,1.27-.62,2.54-.62,1.27.92,2.54.92,1.28,0,2.55,0,1.27-.29,2.54-.29,1.28-.83,2.55-.83,1.27.68,2.55.68,1.27.34,2.54.34,1.28-.51,2.55-.51,1.27.7,2.55.7,1.27-.89,2.54-.89,1.28.68,2.55.68,1.28-1,2.55-1,1.27,1,2.55,1,1.27,0,2.55,0,1.27-.55,2.54-.55,1.28,1.13,2.55,1.13,1.27-1.12,2.55-1.12,1.27.41,2.54.41,1.28.37,2.55.37,1.27.34,2.55.34,1.27-.49,2.54-.49,1.27,0,2.55,0,1.27-.49,2.54-.49,1.27.95,2.55.95,1.27-1.57,2.54-1.57,1.27,0,2.55,0,1.27.78,2.54.78,1.27.6,2.55.6,1.27-1.53,2.54-1.53,1.27.92,2.55.92,1.27.55,2.54.55,1.27-1.18,2.55-1.18,1.27,1.28,2.54,1.28,1.27-1.62,2.55-1.62,1.27,1.23,2.54,1.23,1.28-1,2.55-1,1.27,1.49,2.55,1.49A4.41,4.41,0,0,0,29.59,669h2.55a7.57,7.57,0,0,0,2.55.54c1.28,0,1.28-.22,2.55-.22s1.27.53,2.55.53,1.27-.52,2.55-.52a6.38,6.38,0,0,1,2.55.67h2.54a8.52,8.52,0,0,1,2.55-.47c1.27,0,1.27-.3,2.55-.3s1.27.69,2.54.69,1.28-.89,2.55-.89,1.27-.28,2.55-.28,1.27,1.11,2.54,1.11,1.28.1,2.55.1,1.27-.2,2.54-.2,1.28,0,2.55,0,1.27-1.23,2.55-1.23,1.27.7,2.54.7,1.28.9,2.55.9,1.27-.37,2.55-.37,1.27-.47,2.54-.47,1.28,1,2.55,1,1.27-.36,2.55-.36,1.27-1,2.55-1,1.27.55,2.55.55,1.27-.18,2.55-.18,1.27.94,2.54.94,1.28-.28,2.55-.28,1.28-1.33,2.55-1.33,1.28.94,2.55.94,1.27.65,2.55.65,1.27-.2,2.54-.2,1.28-.25,2.55-.25,1.27.54,2.55.54,1.27-.68,2.55-.68,1.27.51,2.54.51,1.28-1.4,2.55-1.4,1.27.37,2.55.37,1.27-.11,2.54-.11,1.28-.5,2.55-.5,1.28.88,2.55.88,1.27,0,2.55,0,1.27.13,2.55.13,1.27.23,2.55.23,1.27-.72,2.55-.72,1.27.26,2.55.26,1.27,0,2.54,0,1.28.22,2.55.22,1.28-.41,2.55-.41,1.27-.26,2.55-.26,1.27.62,2.55.62,1.27.11,2.54.11,1.28-.44,2.55-.44,1.28.77,2.55.77,1.27-.94,2.55-.94,1.27-.44,2.55-.44,1.27,1.17,2.54,1.17,1.28-.55,2.55-.55,1.28.45,2.55.45,1.28-.83,2.55-.83,1.28.81,2.55.81,1.28-.81,2.55-.81,1.28-.14,2.55-.14,1.28,1.16,2.55,1.38h2.55c1.27-.22,1.27-1.23,2.55-1.23s1.27.34,2.54.34,1.28-.51,2.55-.51,1.28.23,2.55.23,1.28.17,2.55.17,1.28,0,2.55,0,1.28-.48,2.55-.48,1.28,1.75,2.55,1.75,1.28-.34,2.55-.34,1.28-.09,2.55-.09,1.27-.88,2.55-.88,1.27.23,2.55.23,1.27.32,2.55.32,1.27-.71,2.55-.71,1.27-.1,2.55-.1,1.27,1.07,2.55,1.07,1.27-1.23,2.55-1.23,1.27.15,2.55.15,1.27,1.09,2.54,1.09,1.28-.16,2.55-.16,1.28.33,2.55.33,1.28-.6,2.55-.6,1.28-.58,2.55-.58,1.28-.08,2.55-.08,1.28.37,2.55.37,1.28,1.22,2.55,1.22S262.76,669,264,669s1.27.3,2.54.3,1.28,1,2.55,1,1.27-.3,2.55-.3,1.27-.54,2.54-.54,1.27.4,2.55.4,1.27.28,2.54.28,1.27-.7,2.55-.7,1.27.07,2.55.07,1.27.15,2.54.15,1.28.15,2.56.15,1.27-1.32,2.55-1.32,1.27,1.82,2.55,1.82,1.27-1.5,2.54-1.5,1.28.65,2.55.65,1.27-.52,2.55-.52,1.27-.49,2.55-.49,1.27,1,2.54,1,1.28,0,2.55,0,1.28-.29,2.55-.29,1.28.24,2.55.24,1.28-.34,2.56-.34,1.27.69,2.54.69,1.28-.62,2.55-.62,1.28.53,2.55.53,1.28.56,2.55.56,1.28-1.44,2.55-1.44,1.28.72,2.55.72,1.28-.57,2.55-.57S336.67,670,338,670s1.27-.19,2.54-.19,1.28.16,2.55.16,1.28-1.11,2.56-1.11,1.27.44,2.55.44,1.27.51,2.55.51,1.28.08,2.55.08,1.28-1.08,2.55-1.08,1.28-.09,2.55-.09,1.28-.2,2.56-.2,1.27,1.45,2.55,1.45,1.27-.65,2.55-.65,1.28-.85,2.55-.85,1.28,1.17,2.55,1.17,1.28-.42,2.56-.42,1.27.74,2.55.74,1.28-.15,2.55-.15,1.28.29,2.55.29,1.28-.81,2.56-.81,1.27,1,2.55,1S387.7,670,389,670s1.27-.61,2.55-.61,1.27.81,2.55.81,1.27-1,2.55-1,1.28.6,2.55.6,1.28-.91,2.56-.91,1.27,1.33,2.55,1.33,1.28-1.48,2.55-1.48,1.28,1.16,2.56,1.16,1.27.28,2.55.28,1.28-1.42,2.56-1.42,1.27.64,2.55.64,1.28.83,2.55.83,1.28-1,2.56-1,1.28,1,2.55,1,1.28-1.71,2.56-1.71,1.28,0,2.56,0,1.28,1.66,2.56,1.66,1.15-.46,2.06-1.48,0-.88,0-2.32.49-1.45.49-2.9.68-1.44,1.1-2.89v-2.9c-.44-1.45-1.76-1.45-1.76-2.89s.92-1.45.92-2.9.5-1.44.5-2.89-.2-1.44-.2-2.89.26-1.45.26-2.89-1.19-1.45-1.19-2.9,0-1.45,0-2.89.49-1.45.49-2.9-.47-1.45-.47-2.89-.26-1.45-.26-2.9.46-1.45.46-2.89-.43-1.45-.43-2.9,1.39-1.45,1.39-2.89-.95-1.45-.95-2.9,1-1.45,1-2.9-1.06-1.44-1.06-2.89,1-1.45,1-2.9-1.33-1.44-1.33-2.89.89-1.45.89-2.9-.68-1.45-.68-2.9.5-1.44.5-2.89.07-1.45.07-2.9-.38-1.45-.38-2.9,1.06-1.44,1.06-2.89-.26-1.45-.26-2.9-.8-1.45-.8-2.9.87-1.45.87-2.89-1.37-1.45-1.37-2.9.31-1.44.31-2.89-.1-1.45-.1-2.9.84-1.45.84-2.89.52-1.45.52-2.9-.95-1.45-.95-2.9-.44-1.44-.44-2.89,1.39-1.45,1.39-2.9-.51-1.45-.51-2.9-.82-1.45-.82-2.9.3-1.45.3-2.9-.53-1.45-.53-2.9.52-1.45.52-2.9.66-1.45.66-2.9-.37-1.45-.37-2.89.07-1.46.07-2.91-.31-1.45-.31-2.9.46-1.45.46-2.9.33-1.45.33-2.91-.85-1.42-.94-2.87c0-.11.67,0,.65-.14.06-.74-.5-1.37-.47-2.11S434.7,518,434.7,517.21Z"/><path class="cls-2" d="M926.94,550.63c0-1,1.09-2.09,1.06-3.11s-1.88-2-1.94-3,.64-2.1.55-3.13-.28-2-.4-3.06-.38-2-.53-3,.66-2.2.48-3.21-.2-2.09-.41-3.1-2.06-1.65-2.3-2.65.52-2.25.25-3.24-1-1.86-1.29-2.85-1.09-1.8-1.42-2.77.38-2.32,0-3.29-1.49-1.63-1.87-2.58-.87-1.86-1.29-2.8-1.05-1.76-1.49-2.69-1.17-1.7-1.64-2.61-.46-2.07-1-3,0-2.38-.51-3.27-.71-2-1.26-2.88-1.52-1.5-2.1-2.35-1.19-1.71-1.79-2.54-2.29-.87-2.92-1.69-.82-2-1.47-2.75-.77-2.05-1.44-2.84-.87-2-1.57-2.77-2.23-.76-2.94-1.5-1-1.92-1.75-2.64-1.32-1.64-2.08-2.34-2.73,0-3.51-.71-1.19-1.75-2-2.4-1.18-1.84-2-2.47-2.5-.06-3.34-.66-1.15-1.92-2-2.5-1.7-1.15-2.57-1.71-2-.63-2.91-1.15-1-2.46-1.88-3-2.51.33-3.43-.14-1.31-2-2.24-2.44-1.94-.77-2.88-1.19-1.9-.84-2.86-1.23-2.42.55-3.38.19-1.68-1.39-2.66-1.72-2.06-.29-3-.59-1.68-1.59-2.68-1.86-2-.58-3-.83-2.1-.1-3.11-.32-1.9-1.1-2.92-1.28-2.08-.21-3.1-.36-2.16.55-3.19.43-2-.38-3.06-.47-2.08.2-3.11.14-2-.29-3.08-.32-2.06-.08-3.09-.08-2,1.11-3.08,1.14-2.17-2-3.2-1.9-1.93,2.07-3,2.16-2.17-.93-3.2-.8-1.93,1.14-3,1.29-2.38-1.62-3.4-1.44-1.9,1.25-2.91,1.46-1.69,1.87-2.7,2.11-2.13,0-3.13.22-2.1.18-3.09.49-1.84,1-2.82,1.35-2.53-.89-3.5-.53-2,.78-2.92,1.17-1.34,2.17-2.28,2.59-2.45-.32-3.38.12-1.78,1.14-2.7,1.62-2,.65-2.94,1.15-1.78,1.13-2.67,1.66-.92,2.47-1.79,3-2.14.51-3,1.09-2.09.66-2.93,1.27-1.71,1.21-2.53,1.84-.53,2.66-1.33,3.32-1.65,1.21-2.44,1.89-2.81,0-3.57.67-1.17,1.82-1.91,2.54-2,.93-2.76,1.68-.9,2-1.59,2.8-.75,2.11-1.42,2.9-1.53,1.42-2.18,2.23-1.79,1.24-2.41,2.07-.47,2.22-1.07,3.07-1.41,1.54-2,2.4-1.43,1.55-2,2.43-1.29,1.66-1.82,2.55.13,2.44-.37,3.36-2.68.93-3.15,1.86.75,2.67.31,3.61-2.44,1.17-2.85,2.13.15,2.32-.23,3.28-1.38,1.7-1.74,2.68-.51,1.3-.84,2.29c-.82-.61-2,.45-2.79-.12s-.84-2.43-1.71-3-1.83-1-2.72-1.46-1.73-1.12-2.63-1.6-2.35.11-3.27-.34-1.09-2.5-2-2.92-2.05-.47-3-.86-2.18-.05-3.14-.4-1.93-.64-2.91-1-2.19.27-3.18,0-1.87-.79-2.86-1-1.58-2.25-2.58-2.47-2.13.1-3.13-.08-2.11.22-3.13.08-1.92-1.23-2.94-1.34-2.07-.08-3.09-.15-2.13,1.73-3.15,1.69-2-.34-3-.34-2.08-.68-3.12-.65-2.07.21-3.1.28-2.1-.13-3.13,0-1.91,1.33-2.94,1.48-2,.5-3,.68-2.37-1.32-3.39-1.1-1.82,1.34-2.83,1.59-2.15,0-3.15.28-1.85,1.05-2.83,1.38-1.94.74-2.91,1.1-2,.64-2.93,1-2.23.09-3.17.53-1.14,2.41-2.07,2.88-2.88-1-3.79-.54-1.31,1.94-2.21,2.47-1.19,2-2.06,2.55-2,.7-2.85,1.29-1.92,1.67-2.75,2.29c-.9-.49-2.15-1.27-3.08-1.71s-1.6-1.4-2.55-1.79-2.2.13-3.17-.21-1.35-2.5-2.34-2.78-2.34.83-3.34.6-2-.26-3-.43-2,.07-3,0-1.9-1.79-2.92-1.85-2.08,1.15-3.11,1.15-2.16-.6-3.23-.54-2.13.33-3.19.45-2.35-1-3.4-.8-1.86,1.78-2.9,2-2,.89-3,1.2-2.6-.94-3.6-.57-1.6,1.89-2.58,2.31-2,.82-2.94,1.3-2,1.64-3,2.18c-.69-.76-1.22-2.28-1.94-3s-.85-2.08-1.59-2.79-1.59-1.35-2.36-2-1.53-1.4-2.33-2-1.7-1.2-2.51-1.82-2-.7-2.89-1.29-1.83-.95-2.69-1.51-1.25-1.89-2.12-2.42-2-.61-2.94-1.1-1.49-1.61-2.4-2.08-2.41.24-3.34-.19-2-.49-2.94-.89-2-.38-3-.74-1.93-.58-2.9-.91-1.52-1.91-2.51-2.2-2-.31-3-.56-1.88-.94-2.89-1.16-1.93-.85-2.94-1-2.18.54-3.19.39-2-.3-3-.41-2-.52-3-.59-2.1,1.16-3.12,1.13-2-1.13-3-1.13-2.06.44-3.1.47-2.09-.39-3.13-.32-2.17-.77-3.2-.65-1.87,1.81-2.9,2-2,.65-3,.83-2.1,0-3.11.2-2,.48-3,.74-2,.57-3,.87-2.13.13-3.11.47-2.3-.21-3.27.16-1.92.89-2.87,1.3-1.89.93-2.83,1.37-2,.69-2.93,1.17-.94,2.63-1.84,3.14-2.08.52-3,1.06-2,.75-2.84,1.32-1.08,2.06-1.93,2.66-1.58,1.29-2.4,1.92-1.82,1-2.62,1.65-1.82,1-2.59,1.73-1.73,1.18-2.47,1.9-2.16.8-2.88,1.55-.87,2-1.56,2.82-.79,2-1.45,2.84-1.78,1.22-2.41,2-1,1.8-1.64,2.65-.65,2-1.22,2.91-1.65,1.38-2.19,2.26-.44,2.11-.95,3-1.53,1.5-2,2.42-.82,1.89-1.26,2.83-1.56,1.25-2,2.2c-.93-.31-1.69-.18-2.64-.45s-2,.14-3-.07-1.69-1.56-2.67-1.73-2-.38-3-.49-2.07,1.42-3.06,1.37-1.91-1.63-2.9-1.63-2,.5-3,.55-1.9,1-2.88,1.13-2-.08-3,.08-2.64.84-3.6,1.06c-.28-1,0-2.92-.34-3.87s-.56-2-.94-2.88-1-1.77-1.44-2.68-.53-2-1-2.89-2.12-1.09-2.65-2-.23-2.23-.8-3.06-1.69-1.24-2.31-2-.16-2.48-.82-3.25-2.18-.76-2.88-1.49-.53-2.35-1.27-3-1.4-1.55-2.17-2.2-2.81.28-3.62-.32-1-2.05-1.84-2.61-1.81-.92-2.68-1.44-1.67-1.14-2.56-1.61-2.15-.18-3.07-.6-1.35-2-2.29-2.34-2.21.18-3.17-.14-1.91-.6-2.88-.86-1.87-.78-2.86-1-1.93-.68-2.93-.84-2.06.33-3.07.22-2,.49-3,.44-1.95-1.47-3-1.47-2,.14-3,.19-2.07-.33-3.06-.23-1.85,1.44-2.83,1.6-2.3-1.25-3.28-1-1.66,1.79-2.62,2.05-2.08.09-3,.41-1.73,1.12-2.66,1.49-2.43-.52-3.34-.1-.86,2.82-1.75,3.28-2.16.2-3,.71-1.66,1.11-2.49,1.67-1.73,1-2.53,1.62-2.13.58-2.9,1.22-1.22,1.69-2,2.37-1.48,1.38-2.18,2.1-1.59,1.29-2.25,2-.58,2.13-1.2,2.92-1.31,1.5-1.89,2.33-1.77.54-2.3,1.4c-1-.3-1.35-.61-2.33-.85s-2.09,0-3.08-.21-2.21,1.31-3.21,1.19-1.91-.6-2.91-.66-2-.27-3-.27-2,.59-3,.65-2.12-1.11-3.12-1-2,.29-3,.47-2.15-.16-3.13.08-2,.43-3,.74-1.45,2-2.39,2.41-2,.36-3,.78-1.63-.33-2.52.15c-.58-.91-.65-1.37-1.26-2.25s-2.94-.54-3.58-1.4.15-2.82-.52-3.67-2.35-.83-3.06-1.65-.58-2.36-1.32-3.15-2.16-.9-2.93-1.66-.52-2.47-1.28-3.18-1.77-1.19-2.55-1.86-1.55-1.44-2.36-2.09-2.28-.47-3.11-1.09-1.71-1.16-2.56-1.76-2.08-.59-3-1.15-1.59-1.31-2.48-1.85-1.66-1.23-2.57-1.73-1.19-2.22-2.11-2.69-2.33,0-3.27-.43-2.19-.14-3.15-.54-1.17-2.67-2.14-3-2.36.37-3.34,0-1.69-1.59-2.69-1.89-2.34.63-3.35.37-1.7-1.83-2.72-2.06-2.27.67-3.29.48-1.92-1.18-2.95-1.34-2.14.26-3.17.14-2.15.77-3.19.69-2.05,0-3.08-.05-2-1.94-3.07-1.95-2.1.13-3.14.15-2.09.24-3.13.31-2.08.28-3.12.38-2.05.46-3.08.6-2,.43-3.06.61-1.91,1-2.93,1.22-2.38-1.1-3.39-.85-1.65,1-2.65,1.3c-.56-.95-1.59-1.31-2.2-2.24s-.62-2.25-1.27-3.14-1.25-1.83-1.95-2.69-1.29-1.82-2-2.64-2-1.15-2.79-1.93-1.49-1.43-2.25-2.12-2-.81-2.79-1.47-.74-2.39-1.56-3-1.71-1.21-2.56-1.79-2.1-.57-3-1.1-2-.56-2.95-1.05-1.16-2.26-2.08-2.71-1.77-1.21-2.71-1.62-2.24,0-3.21-.4-2-.72-2.93-1-2.28.5-3.27.23-1.86-1-2.86-1.21-2-.47-3-.64-2-.9-3-1-2-.91-3-1-2.1-.1-3.13-.12-2.11.24-3.14.26-2,2-3,2.06-2.15-1.07-3.17-.95-2.11-.1-3.12.07-1.87,1.23-2.87,1.45-1.92.72-2.92,1-2.44-1-3.43-.71S79,466.09,78,466.45s-2.42-.51-3.37-.11-1.71,1.26-2.64,1.71-2,.7-2.87,1.2-1.73,1.15-2.61,1.68-1.07,2.12-1.93,2.7-2.83-.43-3.66.19-1,2.56-1.76,3.22c-1-.46-1.62-2.29-2.61-2.7s-2.34.05-3.35-.32-2-.9-3-1.21S48,472.7,47,472.44s-1.88-1.41-2.93-1.62-2.24.31-3.3.16-2.11-.24-3.18-.34-2.18.9-3.25.85-2.08-1.41-3.15-1.41-2.07.43-3.09.48-2.12-.48-3.15-.39-2.1.07-3.12.22-2.06.38-3.08.58-1.83,1.35-2.83,1.59-2.35-.72-3.34-.43-1.51,2.07-2.49,2.41-1.9.71-2.86,1.1-2.11.29-3,.72-2.13.39-3,.86S-.53,478.49-1.42,479s-2,.8-2.82,1.36-2.18.54-3,1.15S-9,482.75-9.8,483.4s-.86,2.23-1.64,2.91-1,1.93-1.76,2.65-2.87.08-3.58.83-1.41,1.59-2.08,2.37-.37,2.4-1,3.22-1.67,1.34-2.27,2.19-.9,1.89-1.46,2.76-.5,2.1-1,3-1.79,1.05-2.26,2c-1.1-.23-2.18,1-3.3.78s-2.18-.34-3.31-.46-2.17-.65-3.31-.71-2.23-.13-3.36-.13-2,.4-3.05.44-2.18-1.56-3.2-1.47-2,.71-3,.85-2.19-.36-3.19-.17-1.83,1.41-2.83,1.65-2.25-.34-3.23-.05-1.69,1.56-2.66,1.89-2.31-.24-3.26.14-1.76,1.22-2.69,1.65-1.74,1.16-2.66,1.63-1.53,1.48-2.42,2-2.55-.21-3.41.35-1,2.17-1.88,2.77-1.63,1.23-2.44,1.86-1.1,1.86-1.88,2.53-2.86-.09-3.61.62-.6,2.33-1.31,3.08-2.24.76-2.91,1.54-.33,2.41-1,3.22-2.34.83-2.94,1.66-.78,2-1.34,2.86-1.71,1.4-2.23,2.29.92,2.85.45,3.77-2.13,1.22-2.57,2.16-.06,2.2-.45,3.15-.34,2-.68,3-2,1.48-2.35,2.47-.14,2.1-.39,3.1,0,2.1-.17,3.11-1.28,1.78-1.42,2.8c0,.1-.6,0-.61.05-.1.79.9.9.87,1.7s-.18,1.73-.25,2.61-.2,1.73-.24,2.61.17,1.74.17,2.62-.91,1.78-.87,2.65.11,1.77.19,2.64.43,1.69.53,2.56c0,1.54,1.33,1.53,1.33,3.07s-1.4,1.54-1.4,3.08.24,1.54.24,3.08-.07,1.55-.07,3.09,1.54,1.54,1.54,3.08-1.87,1.55-1.87,3.09,1.75,1.54,1.75,3.09-.47,1.54-.47,3.09-.63,1.54-.63,3.08-.17,1.54-.17,3.09.29,1.54.29,3.08-.45,1.54-.45,3.09,1.35,1.54,1.35,3.08-1.76,1.55-1.76,3.09,1.21,1.54,1.21,3.09-1,1.54-1,3.09-.24,1.54-.24,3.08.7,1.54.7,3.09,1.25,1.54,1.25,3.08-.91,1.55-.91,3.09-1.35,1.55-1.35,3.09,1.45,1.55,1.45,3.09.71,1.54.71,3.09-1.41,1.54-1.41,3.08-.76,1.55-.76,3.1,1,1.54,1,3.08.91,1.55.91,3.09-1.36,1.55-1.36,3.09.17,3.09.17,3.09v3.09a30.47,30.47,0,0,1,.18,3.09c0,1.54.92,1.54.92,3.09s-1,1.54-1,3.09-.45,1.54-.45,3.09,1.08,1.54,1.08,3.09.26,1.54.26,3.09.14,1.54.14,3.08-.41,1.55-.41,3.09-.71,1.54-.71,3.09,1.19,1.54,1.19,3.09-2,1.54-2,3.09.3,1.54.3,3.09,1.91,1.54,1.91,3.09-.45,1.54-.45,3.09-.86,1.54-.86,3.09,1.18,1.54,1.18,3.09-1.8,1.55-1.8,3.09,1.85,1.55,1.85,3.1-.48,1.54-.48,3.09.42,1.54.42,3.09-.14,1.55-.14,3.09-.38,1.55-.38,3.1.66,1.55.66,3.1-2.8,2.68-1.7,3.78,2.22-1.79,3.77-1.79,1.54.16,3.08.16,1.54.15,3.08.15,1.55,1.11,3.09,1.11,1.54-.92,3.08-.92,1.54-.3,3.08-.3,1.55.91,3.09.91,1.54-.13,3.08-.13,1.54-.47,3.09-.47,1.54,1,3.08,1,1.54.5,3.08.5,1.55-1.28,3.09-1.28,1.54.46,3.08.46,1.54-.26,3.09-.26,1.54.56,3.08.56,1.54-.62,3.09-.62,1.54-.83,3.08-.83,1.54.39,3.08.39,1.55,1,3.09,1,1.54.34,3.09.34,1.54-1.48,3.08-1.48,1.54,2,3.09,2,1.54-.66,3.08-.66,1.55-.08,3.09-.08,1.54-.73,3.08-.73,1.55,1,3.09,1,1.54-.84,3.09-.84,1.54,1.14,3.08,1.14,1.55-.25,3.09-.25,1.54-1.4,3.09-1.4,1.54.86,3.08.86,1.54,1,3.09,1,1.54-1.88,3.08-1.88,1.54-.26,3.09-.26,1.54-.08,3.08-.08S4.89,744,6.44,744H9.52c1.54,0,1.54.22,3.08.22s1.55-.6,3.09-.6,1.54-.91,3.08-.91,1.54.95,3.09.95,1.54-.46,3.08-.46,1.54,1.56,3.09,1.56,1.54-1.7,3.08-1.7,1.54.91,3.08.91,1.55.27,3.09.27,1.54.17,3.08.17,1.55.13,3.09.13,1.54-1.13,3.08-1.13,1.55.2,3.09.2,1.54.14,3.08.14,1.55,1,3.09,1,1.54-1.15,3.08-1.15,1.55.17,3.09.17,1.54.34,3.08.34,1.55-.34,3.09-.34S69.67,745,71.22,745s1.54-1.76,3.08-1.76,1.55-.42,3.09-.42,1.54,2,3.09,2,1.54-.94,3.08-.94,1.55.05,3.09.05,1.54-.26,3.08-.26,1.55,0,3.09,0,1.54.48,3.09.48,1.54-.51,3.08-.51,1.54-.75,3.09-.75,1.54,1.24,3.08,1.24,1.54-.14,3.09-.14,1.54.05,3.08.05,1.54,1,3.09,1,1.54-2.22,3.08-2.22,1.54,1.93,3.09,1.93,1.54-.31,3.08-.31,1.54-.72,3.08-.72,1.55.38,3.09.38,1.54-.49,3.08-.49,1.55.58,3.09.58,1.54-1.36,3.08-1.36,1.55.76,3.09.76,1.54.55,3.09.55,1.54-.52,3.08-.52,1.54.1,3.09.1,1.54-.46,3.08-.46,1.55-.43,3.09-.43,1.54,1.26,3.09,1.26,1.54.89,3.08.89,1.55-1.1,3.09-1.1,1.54-.93,3.09-.93,1.54,1.71,3.08,1.71,1.54-1.78,3.08-1.78,1.54,1.79,3.08,1.79,1.54-.16,3.08-.16,1.54-1.21,3.08-1.21,1.54-.36,3.08-.36,1.54.36,3.08.36,1.54,1.16,3.08,1.16,1.54.19,3.08.19a17.36,17.36,0,0,1,3.08.32h3.08a6.72,6.72,0,0,1,3.09-1c1.54,0,1.54.14,3.08.14s1.54-.76,3.08-.76,1.54-.08,3.09-.08,1.54,1,3.08,1,1.54-1.53,3.08-1.53,1.55,1,3.09,1,1.54.48,3.08.48,1.55.59,3.09.59,1.54-1,3.09-1,1.54,1,3.08,1,1.55-1.53,3.09-1.53,1.54.53,3.09.53,1.54,1,3.08,1,1.55-.69,3.09-.69,1.54.32,3.08.32,1.54-.88,3.09-.88,1.54,1,3.08,1,1.54-1.68,3.08-1.68,1.54,0,3.09,0,1.54,1,3.08,1,1.54.77,3.08.77,1.54-1,3.08-1,1.54,1.48,3.08,1.48,1.55-.62,3.09-.62,1.54-.12,3.08-.12,1.54-.26,3.08-.26,1.54-.1,3.08-.1,1.54-1,3.08-1,1.54,1.74,3.08,1.74,1.54-.25,3.08-.25,1.54.06,3.09.06,1.54-.77,3.08-.77,1.54.6,3.08,1.24h3.08c1.54-.64,1.54-1.58,3.08-1.58s1.54-.4,3.08-.4,1.54,1.5,3.09,1.5,1.54.07,3.08.07,1.54.38,3.08.38,1.54-.81,3.09-.81,1.54.25,3.08.25,1.54.49,3.08.49,1.55-.9,3.09-.9,1.54.17,3.08.17,1.55-.66,3.09-.66,1.54,1.33,3.09,1.33,1.54-.52,3.08-.52,1.55-1.41,3.09-1.41,1.55,1.39,3.09,1.39,1.54-.24,3.09-.24,1.54-.48,3.08-.48,1.55,1.34,3.09,1.34,1.54-1.77,3.08-1.77,1.55,1.31,3.09,1.31,1.54-1.15,3.08-1.15,1.55.05,3.09.05,1.54.39,3.08.39,1.54-.49,3.09-.49,1.54.48,3.08.48,1.54.24,3.08.24,1.54.75,3.09.75,1.54-1.52,3.08-1.52,1.54.74,3.08.74,1.54.95,3.08.95,1.55-1.76,3.09-1.76,1.54-.17,3.08-.17,1.54-.22,3.08-.22,1.55,1.55,3.09,1.55,1.54-.77,3.08-.77,1.54-.35,3.09-.35,1.54,1,3.08,1,1.54.22,3.09.22,1.54-1.54,3.08-1.54,1.55.44,3.09.44,1.54.46,3.09.46,1.54,1.11,3.08,1.11,1.55-2.06,3.09-2.06,1.55.43,3.09.43,1.54-.5,3.09-.5,1.54,1.75,3.09,1.75,1.54-1.18,3.08-1.18,1.55.77,3.09.77,1.54.53,3.08.53,1.55-.58,3.09-.58,1.54.77,3.08.77,1.55.2,3.09.2,1.54-2.11,3.08-2.11,1.55,2.15,3.09,2.15,1.54-1.21,3.08-1.21,1.55,1.13,3.09,1.13,1.54-1.75,3.08-1.75,1.54-.42,3.09-.42,1.54.12,3.08.12,1.54,1.4,3.09,1.4,1.54.47,3.08.47,1.55-1.16,3.09-1.16,1.54.89,3.09.89,1.54.37,3.08.37,1.55-1.39,3.09-1.39,1.55-.75,3.09-.75,1.55.28,3.09.28,1.54.81,3.09.81,1.54-.14,3.09-.14,1.54-.64,3.08-.64,1.55,1.24,3.09,1.24,1.54-.44,3.09-.44,1.54-.57,3.08-.57,1.54.56,3.09.56,1.54-.83,3.08-.83,1.55.79,3.09.79,1.54-.47,3.08-.47,1.55.79,3.09.79,1.54.66,3.09.66,1.54-.45,3.08-.45,1.55.24,3.09.24,1.54-.32,3.09-.32,1.54-.12,3.09-.12,1.54.42,3.09.42,1.54-.64,3.08-.64,1.55-.91,3.09-.91,1.55-.09,3.09-.09,1.54-.11,3.09-.11,1.54.4,3.09.4,1.54,1.49,3.08,1.49,1.55-.56,3.09-.56,1.54-.3,3.09-.3,1.54-.82,3.08-.82,1.55,1.89,3.09,1.89,1.54-1.22,3.09-1.22,1.54,1.19,3.08,1.19,1.55-1.67,3.09-1.67,1.55-.34,3.09-.34,1.55.44,3.09.44,1.55.18,3.09.18,1.54.91,3.09.91,1.54-.31,3.09-.31,1.54-1.34,3.08-1.34,1.55,1.64,3.09,1.64,1.55-.83,3.09-.83,1.54.77,3.09.77,1.54-.17,3.08-.17,1.55-.33,3.09-.33,1.55.23,3.09.23,1.54.07,3.09.07,1.54-.9,3.09-.9,1.54,1.78,3.09,1.78,1.54-.18,3.09-.18,1.54-.33,3.09-.33,1.54.43,3.08.43,1.55,0,3.09,0,1.55-1.65,3.09-1.65,1.54,1.28,3.09,1.28,1.54.44,3.09.44,1.54-1.44,3.09-1.44,1.54,1.29,3.09,1.29,1.54-1.14,3.09-1.14,1.54-.2,3.08-.2,1.55,1.53,3.09,1.53,1.55-1.74,3.09-1.74,1.55.35,3.09.35,1.54.36,3.09.36,1.54-.25,3.09-.25,1.54.82,3.09.82,1.54.48,3.09.48,1.54-.6,3.09-.6,1.54-.56,3.09-.56,1.54-.06,3.09-.06,1.54-.13,3.08-.13,1.54,1.28,3.08,1.28,1.54-1.14,3.09-1.14,1.54-.42,3.08-.42,1.54-.47,3.08-.47,1.55.54,3.09.54,1.54-.58,3.09-.58,1.54,1.4,3.08,1.4,1.55-.51,3.09-.51,1.55-.25,3.09-.25,1.55,1.47,3.09,1.47,1.55-.47,3.09-.47,1.54-.37,3.09-.37,1.54-.72,3.08-.72,1.54-.58,3.09-.58,1.54.94,3.08.94,1.55.38,3.09.38,1.55-1.37,3.09-1.37,1.55.2,3.09.2,1.55,1.55,3.09,1.55,1.55-.88,3.09-.88,1.55,1.41,3.09,1.41,1.54-1.34,3.09-1.34,1.54.62,3.09.62,1.54-1,3.09-1,1.54,1.26,3.09,1.26,1.54-1.43,3.09-1.43,1.54,0,3.09,0,1.54-.28,3.09-.28,1.54.71,3.09.71,1.54.55,3.09.55,1.54-1,3.09-1,1.54,1.23,3.09,1.23,1.55-.26,3.09-.26,1.55.38,3.09.38,1.55-.37,3.09-.37,1.55-.32,3.1-.32,1.54,1.08,3.09,1.08,1.54-2.09,3.09-2.09,1.54,1.89,3.09,1.89,1.55-.72,3.09-.72,1.55.16,3.09.16,1.55.14,3.1.14,1.54-1.29,3.09-1.29,1.55.11,3.09.11,1.55,1.9,3.1,1.9,1.54-.23,3.09-.23,1.54-2,3.09-2,1.55.23,3.09.23,1.55,1.34,3.09,1.34,1.54-1.38,3.09-1.38,1.55.91,3.09.91,1.55.54,3.09.54,1.55-1.2,3.1-1.2,1.54-.15,3.09-.15,1.55,1.12,3.1,1.12,1.54.64,3.09.64,1.55-1.44,3.09-1.44,1.55.51,3.1.51,1.55.58,3.1.58,1.54.46,3.09.46,1.55-.14,3.1-.14,1.54-1.35,3.09-1.35,1.55-.61,3.1-.61,1.55.61,3.1.61,2,1.54,3.1.45-1-1.55-1-3.09,2.18-1.55,2.18-3.09-.39-1.55-.39-3.09.29-1.54.29-3.09-1.9-1.54-1.9-3.08-.31-1.54-.31-3.09,2.31-1.54,2.31-3.08-.63-1.54-.63-3.09-.43-1.54-.43-3.08.6-1.55.6-3.09-.44-1.55-.44-3.09-1.39-1.55-1.39-3.09,2.22-1.55,2.22-3.09-1.27-1.54-1.27-3.09.23-1.54.23-3.08.24-1.55.24-3.09-.15-1.54-.15-3.09.6-1.54.6-3.09-.74-1.54-.74-3.09-.1-1.54-.1-3.09-.15-1.54-.15-3.09.86-1.54.86-3.08-1.27-1.55-1.27-3.09.41-1.55.41-3.09-.86-1.55-.86-3.09,1.93-1.55,1.93-3.09-1.08-1.55-1.08-3.09,1-1.55,1-3.09-1.32-1.55-1.32-3.1,1.28-1.54,1.28-3.09-.05-1.54-.05-3.09-.61-1.54-.61-3.09S926,643.52,926,642s-.31-1.54-.31-3.09.38-1.55.38-3.09.89-1.55.89-3.09-1.54-1.55-1.54-3.09,1.42-1.55,1.42-3.1-.14-1.54-.14-3.09.3-1.54.3-3.09-.54-1.54-.54-3.09.39-1.54.39-3.09-.87-1.54-.87-3.09.24-1.54.24-3.09,1.16-1.54,1.16-3.09-.73-1.54-.73-3.09.05-1.55.05-3.09.41-1.55.41-3.1-1.68-1.54-1.68-3.09,1-1.55,1-3.09-1.14-1.55-1.14-3.1-.14-1.55-.14-3.09.87-1.55.87-3.1,0-1.54,0-3.09,1.38-1.55,1.38-3.1-.27-1.54-.27-3.09.3-1.55.3-3.1-.12-1.52-.08-3.07c.13-.93-1-1.91-.9-2.84s.44-1.84.51-2.78-1.09-1.93-1-2.87,1.8-1.79,1.83-2.73S926.94,551.57,926.94,550.63Z"/><circle class="cls-6" cx="63" cy="327" r="54"/><circle class="cls-7" cx="775.99" cy="29" r="54"/><circle class="cls-8" cx="678.09" cy="226.98" r="47.5"/><circle class="cls-9" cx="182.28" cy="46.5" r="75.5"/><path class="cls-2" d="M874.8,223.87c0-.86.18-1.72.16-2.58s.22-1.76.15-2.61-.57-1.68-.7-2.53-.45-1.67-.63-2.5.15-1.83-.09-2.65-.94-1.52-1.23-2.33-.41-1.7-.75-2.48-1.21-1.33-1.61-2.09-.94-1.41-1.39-2.15-.18-1.92-.67-2.63-1.2-1.27-1.74-1.94-.83-1.58-1.41-2.21-1.39-1.09-2-1.69-1.78-.57-2.44-1.13-1.21-1.18-1.91-1.69-.91-1.71-1.63-2.17-1.64-.65-2.4-1.06-1.65-.54-2.43-.91-1.64-.47-2.45-.78-1.32-1.43-2.14-1.69-1.76-.16-2.6-.36-1.75,0-2.6-.12-1.58-1.1-2.44-1.19-1.77.49-2.64.45-1.7-.77-2.54-.75-1.69.47-2.52.54-1.66.4-2.49.52-1.59,0-2.41.17c-.45-.76-1.52-.93-2-1.64s-.92-1.48-1.5-2.15-.93-1.52-1.57-2.13-1.51-.93-2.2-1.48-1.19-1.32-1.93-1.81-1.27-1.34-2-1.76-1.93,0-2.75-.39-1.47-1-2.32-1.3-1.52-1.18-2.39-1.38-1.84.08-2.73,0-1.79.42-2.68.38-1.7-.26-2.56-.23-1.71.09-2.56.2-1.63.5-2.47.69-1.82-.16-2.63.1-1.49.95-2.28,1.28-1.57.66-2.33,1.06-1.41.94-2.14,1.4-1.37,1-2.05,1.51-1.7.64-2.33,1.22-.8,1.62-1.38,2.25-1.59.59-2.11,1.28c-.72-.52-1.6-.39-2.35-.86s-1.08-1.71-1.87-2.12-1.61-.83-2.43-1.18-1.84-.25-2.68-.54-1.8-.14-2.67-.37-1.69-.43-2.57-.6-1.7-.49-2.58-.6-1.74-.51-2.64-.55-1.75.23-2.61.25-1.75,0-2.61.11-1.81-.27-2.66-.13S749,175,748.2,175.21s-1.93-.42-2.75-.16-1.35,1.41-2.15,1.73-1.72.35-2.51.73-1.36,1.1-2.11,1.53-1.85.3-2.57.78-1.58.83-2.26,1.36-1.11,1.41-1.76,2-1.26,1.2-1.86,1.82-1.1,1.35-1.66,2-1.53,1-2,1.73-.33,1.88-.79,2.61-.7,1.56-1.1,2.33-.81,1.5-1.17,2.29-1,1.53-1.34,2.35c-.87.15-1.75.59-2.6.8s-1.86-.15-2.69.12-1.76.38-2.57.7-1.57.84-2.36,1.23-1.59.79-2.35,1.23-1.49,1-2.21,1.46-1.15,1.4-1.84,2-1.59.82-2.24,1.41-1.58.93-2.19,1.57-1.26,1.28-1.82,1.95-.37,1.94-.88,2.65-1.68,1-2.14,1.76-.52,1.74-.92,2.52-1,1.49-1.33,2.3,0,1.86-.32,2.69-.65,1.62-.87,2.47-.55,1.66-.71,2.53-.42,1.7-.52,2.58-.58,1.72-.62,2.6-.11,1.8-.09,2.67,1.11,1.7,1.19,2.57-.27,1.79-.12,2.65.76,1.62,1,2.47-.63,2-.36,2.84,1.18,1.47,1.51,2.28.14,1.88.53,2.67,1.42,1.25,1.86,2,.83,1.55,1.32,2.28.55,1.8,1.09,2.49,1.54,1,2.14,1.67,1.56.9,2.2,1.51.9,1.61,1.58,2.17,1.37,1.1,2.09,1.61,1.4,1.08,2.15,1.53,1.41,1.13,2.19,1.54,1.63.73,2.44,1.07,1.8.25,2.63.54,1.76.16,2.62.39,1.6.74,2.47.91,1.67.76,2.55.86,1.78-.2,2.67-.16,1.73-.12,2.59-.14,1.76.36,2.62.28,1.69-.52,2.54-.66,1.71-.29,2.54-.49,1.63-.24,2.45-.5c.6.69,1.32,1.12,2,1.76s1.11,1.49,1.8,2.08,1.67.82,2.4,1.36,1,1.7,1.81,2.19,2,.24,2.78.66,1.26,1.59,2.09,2,1.92.14,2.77.45,1.8.28,2.68.52,1.66.82,2.55,1,1.77.47,2.68.58,1.8.53,2.71.57,1.69-1,2.52-1.05,1.72.81,2.54.74,1.68-.25,2.5-.38,1.59-.6,2.4-.79,1.55-.64,2.34-.88,1.5-.71,2.28-1,1.81,0,2.57-.32,1.56-.64,2.3-1,1.19-1.26,1.9-1.71,1.47-.79,2.14-1.28,1.37-1.21,2-1.75c.53.65,1,1.58,1.56,2.18s1,1.45,1.58,2,1.22,1.21,1.88,1.72,1.95.16,2.65.62,1,1.63,1.69,2,1.48.86,2.24,1.21,1.81,0,2.6.29,1.35,1.3,2.16,1.53,1.68.3,2.5.46,1.65.49,2.49.59,1.74-.69,2.58-.65,1.74.56,2.6.53,1.73-.34,2.59-.43,1.7-.37,2.55-.54,1.87.31,2.71.08,1.66-.64,2.47-.94,1.43-1.12,2.22-1.48,1.68-.53,2.44-1,1.56-.81,2.28-1.29,1.07-1.46,1.75-2,1.39-1,2-1.61,1.15-1.26,1.74-1.9,1.18-1.24,1.72-1.92,1.06-1.35,1.54-2.07.93-1.44,1.35-2.2,1.37-1.25,1.73-2.05.86-1.56,1.16-2.38-.5-2-.26-2.81.7-1.78.86-2.64c.82-.29,1.82-.59,2.61-.94s1.88-.08,2.64-.48,1.42-1,2.15-1.49,1.13-1.41,1.84-1.91,1.56-.76,2.23-1.3,1.58-.81,2.21-1.39,1.17-1.29,1.77-1.91.86-1.53,1.42-2.19.84-1.49,1.36-2.19,1.48-1,1.94-1.77.84-1.5,1.26-2.26,1.3-1.28,1.66-2.06-.27-2,.05-2.79.75-1.52,1-2.35,1.31-1.42,1.52-2.26.36-1.71.51-2.56.28-1.72.38-2.58S874.76,224.74,874.8,223.87Z"/><path class="cls-10" d="M818.66,138.56c.06-1.23.28-2.45.25-3.67s.34-2.49.23-3.7-.88-2.39-1.08-3.59-.68-2.36-1-3.55.24-2.59-.13-3.76-1.44-2.16-1.88-3.3-.63-2.41-1.16-3.53-1.85-1.87-2.46-3-1.44-2-2.13-3-.27-2.74-1-3.74-1.84-1.8-2.66-2.75-1.28-2.24-2.16-3.14-2.12-1.54-3.07-2.39-2.73-.81-3.74-1.6-1.86-1.67-2.92-2.4-1.39-2.43-2.51-3.09-2.5-.91-3.66-1.5-2.53-.77-3.72-1.29-2.53-.66-3.76-1.11-2-2-3.28-2.39-2.69-.22-4-.52-2.69,0-4-.16-2.42-1.56-3.74-1.7-2.71.71-4,.65-2.6-1.1-3.88-1.07-2.59.67-3.87.77-2.54.56-3.81.74-2.43,0-3.68.24c-.7-1.07-2.34-1.32-3.14-2.34s-1.4-2.09-2.29-3-1.43-2.16-2.4-3-2.31-1.32-3.37-2.11-1.83-1.87-3-2.56-1.94-1.9-3.14-2.5-3-.06-4.21-.56-2.25-1.44-3.55-1.83-2.33-1.68-3.66-2-2.82.1-4.17-.07-2.74.6-4.11.54-2.61-.37-3.91-.32-2.62.13-3.92.28-2.51.72-3.79,1-2.78-.22-4,.14-2.27,1.36-3.49,1.83-2.4.93-3.57,1.5-2.16,1.33-3.27,2-2.1,1.4-3.14,2.14-2.6.9-3.57,1.73-1.22,2.29-2.11,3.19-2.43.84-3.24,1.82c-1.1-.74-2.44-.56-3.6-1.22s-1.64-2.43-2.85-3-2.48-1.17-3.73-1.67-2.81-.35-4.1-.76-2.76-.2-4.08-.52-2.59-.62-3.94-.86-2.6-.7-4-.85-2.66-.72-4-.78-2.68.32-4,.35-2.67,0-4,.16-2.78-.39-4.08-.18-2.34,1.73-3.63,2-3-.6-4.21-.23-2.06,2-3.29,2.46-2.64.5-3.84,1-2.08,1.56-3.24,2.17-2.82.43-3.93,1.11-2.41,1.17-3.46,1.93-1.7,2-2.69,2.82-1.93,1.69-2.86,2.58-1.68,1.91-2.53,2.85-2.34,1.46-3.13,2.46-.5,2.66-1.2,3.7-1.07,2.22-1.7,3.31S587.5,97.83,587,99s-1.6,2.17-2.05,3.33c-1.33.21-2.68.84-4,1.13s-2.85-.2-4.12.18-2.7.53-3.94,1-2.41,1.19-3.61,1.74-2.44,1.12-3.6,1.74-2.28,1.38-3.38,2.08-1.76,2-2.82,2.76-2.44,1.17-3.43,2-2.42,1.32-3.35,2.22-1.93,1.82-2.78,2.78-.58,2.74-1.36,3.75-2.57,1.43-3.27,2.49-.8,2.47-1.42,3.58-1.5,2.12-2,3.27-.06,2.64-.5,3.82-1,2.29-1.33,3.5-.83,2.35-1.08,3.58-.64,2.42-.8,3.66-.89,2.45-1,3.7-.17,2.55-.13,3.78,1.7,2.41,1.82,3.65-.41,2.54-.19,3.76,1.17,2.3,1.49,3.5-1,2.86-.55,4,1.81,2.08,2.31,3.23.22,2.67.81,3.79,2.18,1.78,2.85,2.85,1.27,2.2,2,3.23.84,2.56,1.67,3.54,2.36,1.45,3.27,2.37,2.39,1.28,3.37,2.14,1.38,2.28,2.42,3.07,2.11,1.56,3.21,2.28,2.14,1.54,3.29,2.19,2.15,1.6,3.35,2.17,2.5,1,3.74,1.53,2.74.35,4,.76,2.7.23,4,.55,2.46,1.06,3.79,1.29,2.55,1.08,3.89,1.22,2.74-.28,4.09-.22,2.65-.17,4-.2,2.7.51,4,.39,2.59-.72,3.89-.93,2.62-.41,3.9-.7,2.49-.33,3.75-.7c.91,1,2,1.59,3,2.5s1.7,2.1,2.75,2.94,2.56,1.17,3.67,1.93,1.61,2.42,2.79,3.11,3,.33,4.25.94,1.92,2.26,3.19,2.78,2.94.2,4.25.63,2.75.4,4.1.74,2.54,1.16,3.91,1.41,2.71.66,4.1.82,2.75.76,4.15.81S654,221,655.24,221s2.63,1.16,3.9,1.05,2.56-.35,3.82-.54,2.44-.85,3.68-1.11,2.37-.92,3.59-1.26,2.29-1,3.48-1.43,2.78,0,3.93-.45,2.4-.91,3.52-1.48,1.83-1.79,2.91-2.42,2.26-1.12,3.28-1.82,2.1-1.73,3.08-2.49c.81.92,1.51,2.25,2.39,3.1s1.46,2.06,2.42,2.85,1.86,1.72,2.88,2.44,3,.22,4,.87,1.47,2.33,2.6,2.9,2.26,1.22,3.42,1.71,2.78,0,4,.42,2.05,1.85,3.29,2.17,2.58.42,3.84.66,2.53.68,3.81.83,2.66-1,4-.92,2.67.8,4,.76,2.65-.49,4-.62,2.6-.53,3.9-.76,2.87.43,4.15.11,2.54-.92,3.79-1.34,2.19-1.58,3.39-2.1,2.58-.75,3.74-1.35,2.38-1.15,3.49-1.83,1.64-2.08,2.69-2.85,2.12-1.43,3.1-2.27,1.76-1.8,2.66-2.7,1.81-1.76,2.63-2.73,1.62-1.91,2.36-2.94,1.43-2,2.08-3.12,2.09-1.78,2.65-2.9,1.3-2.21,1.76-3.38-.75-2.79-.4-4,1.07-2.53,1.33-3.74c1.24-.42,2.78-.85,4-1.34s2.87-.11,4-.68,2.17-1.47,3.3-2.11,1.72-2,2.81-2.71,2.38-1.08,3.41-1.84,2.42-1.15,3.4-2,1.78-1.83,2.69-2.71,1.33-2.17,2.19-3.1,1.28-2.12,2.07-3.11,2.27-1.48,3-2.51,1.29-2.13,1.93-3.21,2-1.82,2.54-2.93-.41-2.81.07-4,1.16-2.16,1.56-3.33,2-2,2.32-3.2.55-2.42.78-3.63.43-2.45.58-3.67S818.6,139.79,818.66,138.56Z"/><path class="cls-2" d="M181.8,161.46c0-1,.52-1.91.48-2.86s-.9-1.84-1-2.78S181,154,180.83,153s.19-1.94,0-2.87.33-2,.11-2.95-.88-1.76-1.14-2.67-1-1.68-1.29-2.58.13-2.08-.22-3-.89-1.72-1.29-2.58-1.23-1.52-1.67-2.37-1.29-1.44-1.76-2.26-.71-1.78-1.22-2.58-.53-1.94-1.08-2.72-1.58-1.19-2.17-1.94-1-1.6-1.66-2.32-1.27-1.41-1.93-2.1-1.75-.91-2.44-1.57-1.38-1.26-2.1-1.88-1-1.77-1.73-2.36-1.91-.6-2.68-1.15-1.18-1.63-2-2.14-1.75-.76-2.58-1.24-1.61-1-2.45-1.43-1.5-1.27-2.36-1.66-2.1.1-3-.26-1.56-1.2-2.45-1.51-1.77-.72-2.68-1-1.92-.16-2.84-.38-1.86-.31-2.79-.49-1.82-.55-2.76-.69-2.09-.12-3-.21c-.35-.9-.88-1.91-1.29-2.78s-.25-2-.71-2.87-1.48-1.36-2-2.17-.47-2-1-2.78-1.13-1.59-1.74-2.33-1.88-.9-2.54-1.61-1.41-1.26-2.11-1.92-1.17-1.54-1.91-2.15-1.07-1.76-1.85-2.32-1.88-.68-2.69-1.2-1.63-1-2.47-1.47-1.91-.43-2.79-.84-1.59-1.09-2.48-1.44-1.63-1.15-2.54-1.45-2,.16-3-.08-1.81-.57-2.76-.75-1.86-.3-2.82-.42-1.85-.72-2.82-.78-1.91-.34-2.88-.34-2.06-.12-3.06,0-2,.32-3,.46-2,.63-2.94.83-2,.37-3,.63-2.07.21-3,.54-1.67,1.31-2.6,1.7-1.81.85-2.71,1.31-2.23.15-3.1.66-1.63,1.27-2.46,1.84S58,82.18,57.2,82.8c-1-.24-1.9-1.26-2.88-1.45s-2-.38-3-.53-2,.1-3,0-2-.42-3-.47-2-.19-3-.19-1.87.43-2.8.48-1.88.08-2.8.16-1.78.82-2.7,1-1.84.21-2.75.38-2.06-.69-3-.47S26.8,83,25.9,83.23s-1.92.11-2.8.41-1.67.89-2.53,1.23S19.05,86,18.2,86.42s-1.81.5-2.64.92-1.75,1-2.56,1.48c-1-.29-2.06-.85-3.07-1.09S8.06,86.59,7,86.39,5,86.2,3.92,86.05,1.84,85.9.81,85.8s-2.07-.2-3.11-.25-2.08.5-3.12.5-1.93-.06-2.9,0-1.89.48-2.85.56-2-.72-3-.59-1.92.35-2.87.52-2,.21-2.9.42-1.8.83-2.73,1.09-1.92.39-2.84.69-1.82.67-2.73,1-1.63,1.13-2.52,1.51-2.13,0-3,.43-1.79.8-2.64,1.26S-38,94-38.88,94.51s-1.41,1.42-2.21,1.95-1.65,1-2.43,1.61-1.21,1.59-2,2.2-2.22.37-3,1-1.11,1.68-1.81,2.35-1.41,1.33-2.08,2-1.1,1.63-1.73,2.36-1.84,1-2.44,1.76-1,1.72-1.54,2.5-1.08,1.62-1.62,2.43S-61,116.15-61.53,117s-.69,1.86-1.15,2.71-.39,2-.81,2.85-.71,1.78-1.1,2.68-.63,1.8-1,2.71-1.56,1.51-1.86,2.43,0,2-.31,2.95-.1,1.95-.31,2.9-1.17,1.73-1.34,2.69.15,2,0,2.94-.24,1.91-.32,2.88-.49,1.9-.54,2.87-.43,1.94-.43,2.91,0,1.93,0,2.87.25,1.91.33,2.85.26,1.9.38,2.84,1.06,1.75,1.22,2.68.27,1.87.47,2.79.64,1.78.88,2.69.25,1.88.53,2.79.71,1.74,1,2.63.47,1.84.83,2.71.65,1.78,1.05,2.64.25,2,.69,2.84.93,1.68,1.4,2.5,1.8,1.12,2.31,1.92.83,1.78,1.38,2.55c0,1,.07,2,.13,3s.05,2,.15,2.92-.08,2,.07,2.94-.05,2,.15,3,1.2,1.74,1.44,2.68-.24,2.1.05,3,.84,1.8,1.18,2.72.56,1.89.94,2.79,1.68,1.38,2.1,2.25.86,1.72,1.33,2.58,1,1.67,1.46,2.5,1,1.66,1.52,2.47.73,1.85,1.32,2.63,1.16,1.57,1.78,2.32,1.15,1.58,1.81,2.3,1.16,1.61,1.85,2.3,1.43,1.35,2.16,2,1.56,1.19,2.31,1.81,1.47,1.31,2.25,1.89,1.95.62,2.76,1.16,1.42,1.39,2.26,1.89,1.69,1,2.55,1.44,1.73.9,2.61,1.32,1.63,1.18,2.53,1.55,1.81.79,2.73,1.12,2.05,0,3,.32,1.75,1,2.7,1.22,1.87.69,2.83.88,2,0,3,.1,1.93.31,2.91.4,1.95.24,2.93.29,2-.63,2.94-.63,1.95-.23,2.92-.27,2,.16,3,.07,2-.07,2.94-.21,2-.12,2.94-.31,1.85-.75,2.81-1,1.81-.77,2.75-1,2-.13,2.94-.47,1.92-.51,2.83-.89,1.73-1,2.61-1.4,1.54-1.29,2.41-1.75,2-.65,2.83-1.16c.76.53,1.84.75,2.62,1.25s1.52,1.06,2.33,1.52,1.15,1.79,2,2.22,1.76.68,2.61,1.07,2,.19,2.82.54,1.54,1.17,2.42,1.49,1.93.12,2.82.4,1.8.42,2.71.66,1.63,1.16,2.55,1.36,1.84.35,2.76.51,1.87.17,2.8.29,1.87.07,2.8.15,1.88-.36,2.82-.32,1.84.37,2.77.37,1.92-.2,2.88-.24,1.93,0,2.88-.07,2,.65,3,.52,1.9-.54,2.84-.71,1.92-.34,2.86-.55,1.8-.81,2.73-1.06,2,0,3-.27,1.52-1.52,2.42-1.85,1.85-.54,2.74-.92,2.1-.07,3-.49,1.3-1.72,2.15-2.18,1.85-.61,2.68-1.11,1.31-1.51,2.12-2,1.67-.93,2.46-1.49,1.92-.65,2.67-1.24,1.43-1.31,2.16-1.94,1.09-1.65,1.79-2.32,1.26-1.43,1.93-2.13,1.86-.89,2.5-1.61,1.42-1.34,2-2.09,1.18-1.54,1.75-2.32.89-1.7,1.43-2.5c1,0,2,.51,2.92.44s1.85-1.14,2.81-1.25,1.92-.14,2.87-.3,2,.25,3,0,1.67-1.32,2.61-1.57,1.94-.19,2.86-.48,2.09.07,3-.27,1.81-.77,2.69-1.15,1.72-.95,2.59-1.37,1.75-.86,2.6-1.33,1.4-1.44,2.22-2,1.71-.91,2.51-1.46,1.48-1.24,2.25-1.83,1.67-1,2.41-1.61,1.35-1.39,2.06-2.05,1.14-1.58,1.82-2.27,1.4-1.3,2-2,1.18-1.5,1.79-2.26,1.47-1.29,2-2.07,1.39-1.38,1.93-2.19,1.09-1.61,1.58-2.44.32-2,.77-2.89,1.07-1.6,1.48-2.48.62-1.82,1-2.71,1.44-1.52,1.76-2.43.29-2,.57-2.88.92-1.75,1.15-2.7.52-1.88.7-2.83-.46-2-.32-3,.25-1.89.34-2.86.62-1.88.67-2.85S181.8,162.44,181.8,161.46Z"/></svg>