<?xml version="1.0" encoding="utf-8"?>
<!-- Generator: Adobe Illustrator 22.1.0, SVG Export Plug-In . SVG Version: 6.00 Build 0)  -->
<svg version="1.1" id="圖層_1" xmlns="http://www.w3.org/2000/svg" xmlns:xlink="http://www.w3.org/1999/xlink" x="0px" y="0px"
	 viewBox="0 0 550 229" style="enable-background:new 0 0 550 229;" xml:space="preserve">
<style type="text/css">
	.st0{fill:none;}
	.st1{fill:#344C05;}
	.st2{fill:#72610D;}
	.st3{fill:#2D1A0B;}
</style>
<g>
	<path class="st0" d="M445.9,62.8c-4.3-1.9-4.6-1.7-6.1-2.6c-2.2-1.3-3.5-3-4.8-4.6c-2.1-2.7-3.6-5.5-3.6-5.5s-0.9-1.6-2.6-3.4
		c-0.9-1-1.3-1.1-1.5-1c-0.6,0.2-0.7,2-0.3,3.4c0.3,0.9,0.6,1.3,2.8,3.8c1.6,1.9,2.5,2.8,3.3,3.6c1.3,1.4,2,2.1,3,3
		c1.7,1.6,3.2,2.9,5.5,4c1,0.5,2.5,1.1,4.3,1.4c1.5,0.3,3.6,0.4,3.8,0C449.5,64.7,449.3,64.4,445.9,62.8z"/>
	<path class="st0" d="M442.9,33.5c-1.9-4.4-2.8-6.5-2.8-6.6c-0.7-1.9-0.9-3-2-4.6c-0.4-0.5-2-2.8-3-2.5c-0.7,0.2-0.8,1.5-0.9,2.2
		c-0.2,2,0.1,3.8,0.6,5c1,2.2,1.2,4.2,3.3,7.7c1.6,2.7,1.8,2.6,3.1,4.7c1.1,1.8,2.7,2.3,3.4,3.3l4.3,3.5c-1.6-2.8-2.7-5.2-3.5-6.8
		C445.1,38.5,444.3,36.8,442.9,33.5z"/>
	<path class="st0" d="M456,36.8c1.6-1.9,2.3-3.6,2.5-4c0.8-1.9,1.1-3.5,1.3-4.6c0.2-1.3,0.3-2.6,0.4-5.3c0-0.7,0.1-2.2,0-4.1
		c-0.1-1.2-0.1-2.7-0.3-2.7c-0.2,0-0.3,1.6-1,4.2c-0.3,1.3-0.8,2.5-1.7,5c-0.7,2-0.8,2.1-1.5,4.1c-1.2,3.2-1.4,4.3-1.6,5
		c-0.3,1.3-0.9,4-0.3,4.3C454.3,38.8,455.1,37.8,456,36.8z"/>
	<path class="st0" d="M457.3,85.3c0.8,0.4,2.3-1,3.6-2.3c0.9-0.8,1.6-1.6,2.7-2.7c3.2-3.1,2.9-3.1,3.3-3.7c2-2.5,3.1-3.8,3.8-5.6
		c0.4-1.1,0.7-2.7,0.1-3c-0.1-0.1-0.4-0.2-1.6,0.6c-1.4,0.9-2.3,2-2.9,2.6c-1.5,1.7-2.3,2.6-2.5,2.9c-1.1,1.2-1.2,1.1-3.5,3.3
		c-2.7,2.5-3,3.1-3.3,3.6C456.3,82.7,456.4,84.9,457.3,85.3z"/>
	<path class="st0" d="M472.3,40.6c-0.3-0.1-0.7,0.3-1.1,0.8c-1.8,1.9-2.8,3.7-3,4c-0.2,0.3-1.1,1.5-2.9,3.9
		c-2.2,2.9-2.3,2.9-3.6,4.8c-0.8,1.1-1.5,2.2-2.8,3.9c-0.3,0.4-0.6,0.8-1.1,1.3c-1.6,2-2.6,2.7-2.6,2.8c0.1,0.2,4.2-2.5,8.6-6.4
		c2.6-2.3,4-3.8,4.6-4.6c2.8-3.3,3.7-5.5,4-7.5C472.5,43.2,472.9,40.8,472.3,40.6z"/>
	<path class="st1" d="M477.9,36.5c-0.2-0.9-0.4-1.8-1-2.8c-0.5-0.8-0.9-1.5-1.7-1.8c-1.2-0.4-2.3,0.2-2.7,0.4
		c-1.1,0.7-1.2,1.5-2.2,3c-0.8,1.2-1,1.1-2.7,2.9c-1.5,1.7-2.5,3.2-3.4,4.5c-0.8,1.1-0.5,0.8-2.8,4.3c-0.7,1-1,1.6-1.6,2.5
		c-0.8,1.3-0.9,1.6-1.7,2.8c-1.4,2.3-1.6,2.4-2.5,4c-0.3,0.5-0.6,1-0.8,1.4c-0.1-0.8-0.2-1.7-0.3-2.9c-0.2-3.1-0.3-4.7-0.2-6
		c0.1-1.1,0.3-1.9,0.4-2.6c0.4-0.5,0.9-1.1,1.6-1.9c1.3-1.7,2-2.8,3-4.3c2-3,2.3-2.8,3.2-4.3c1.2-2.1,1.5-3.9,2.2-7.5
		c0.2-1.3,0.7-4.4,0.8-8.7c0.1-6-0.6-8.6-1-9.7c-0.6-1.9-1.4-3.1-2.5-4c-0.4-0.3-2.3-1.8-4.2-1.2c-0.4,0.1-1.4,0.6-2.5,2.8
		c-1.3,2.7-1,4.5-1.5,8.7c-0.3,2.3-0.5,4.2-1.2,6.7c-1.1,3.8-1.9,4-2.5,7.3c-0.2,1.3-0.6,3.3-0.3,6c0.2,2.2,0.6,3.9,0.5,3.7
		c-1-2.2-1.7-1.9-3.5-5.3c-0.8-1.6-1.4-3.4-2.7-6.8c-0.9-2.4-0.9-2.7-1.7-4.8c-1-2.7-1.5-4-2.2-5.3c-1-2-2-3.7-4-5.2
		c-1-0.7-2.5-1.8-4.5-1.5c-0.3,0-1.6,0.3-2.5,1.3c-0.5,0.6-0.8,1.3-0.8,4.8c0,2.5,0,3.7,0.2,5.2c0.3,2.2,0.9,3.8,1.5,5.7
		c0.6,1.7,1.1,2.9,1.8,4.5c0.9,2,1.7,3.7,2.8,5.8c1.5,2.7,2.8,5,5.2,7.5c1.2,1.3,2.3,2.1,4,3.5c2.1,1.7,3.3,2.6,4.1,2.8
		c0,0.1,0,0.2,0,0.3c0.2,1.6,0.2,1.9,0.3,3.3c0.1,1.4,0.1,1.3,0.5,3.2c0.1,0.3,0.1,0.6,0.2,0.9c0,0-0.1-0.1-0.1-0.1
		c-1.7-1.4-2.7-0.8-5.2-1.8c-2.2-0.9-3.5-2.2-5.7-4.5c-1-1-2.5-2.5-3.8-4.8c-0.9-1.5-1-2.1-2.3-4.2c-0.8-1.3-1.6-2.3-2.7-3.3
		c-0.7-0.6-1.2-1.1-2.2-1.5c-0.6-0.3-2.2-0.9-3.5-0.2c-1,0.6-1.3,1.8-1.5,2.7c-0.4,1.7-0.2,3.2,0.3,5.2c0.6,2.6,0.4,4,3.1,7.8
		c1.6,2.2,2.3,2.5,3.5,4.4c1.3,2,2.4,3.1,2.7,3.3c0.8,0.8,1.5,1.3,4,2.8c3.1,1.9,4.7,2.9,5.3,3.2c2.6,1,2.6,0.3,6.8,1.7
		c0.7,0.2,1.2,0.4,1.6,0.5c0,0.5,0,0.9,0,1.3c0,1.6,0.2,2.1,0.6,4.5c-0.8-0.7-1.7-1.4-2.7-1.8c-0.3-0.1-0.7-0.3-1.5-0.6
		c-0.8-0.3-0.8-0.4-1.4-0.6c-0.9-0.4-1.1-0.3-1.8-0.7c-0.5-0.2-0.5-0.3-1-0.6c-1.2-0.7-1.5-0.5-2.7-1.2c-0.5-0.3-0.5-0.3-1.1-0.6
		c-0.8-0.4-1.2-0.5-2.5-1.3c-2.1-1.2-2.2-1.6-3.5-2.1c-1.1-0.4-2.4-0.9-3.5-0.3c-0.9,0.5-1.3,1.5-1.5,1.9c-0.3,0.8-0.3,1.6-0.3,2.5
		c0,0.8,0.1,2.2,0.8,3.5c0.4,0.8,0.6,0.7,2,2.3c1.7,2,1.6,2.3,2.8,3.5c0.4,0.4,1.2,1,2.7,2.2c1.6,1.2,2.4,1.9,3.1,2.4
		c1.3,0.9,2.2,1.4,4,2.3c1.2,0.6,2.7,1.4,4.7,2.3c2.3,1,4,1.7,5.2,2.1c0,0.2,0,0.4,0,0.6c0.1,0.8,0.2,2.2,0.3,5
		c0.3,4.9,0.3,5.2,0.3,5.8c0,2.9-0.2,2.9-0.1,5c0.2,2.1,0.4,2.1,0.6,4.5c0.2,2.8,0.2,4.2,0.2,4.2c0,1-0.1,1.9,0.3,3
		c0.4,1.3,0.9,1.8,1.1,1.9c0.2,0.1,0.9,0.7,1.8,0.6c1-0.2,1.5-1.1,1.7-1.4c0.5-0.9,0.5-1.7,0.4-3.3c-0.1-2.3-0.3-2.9-0.4-4.7
		c-0.1-1.9,0-1.9-0.2-4.3c-0.1-1.8-0.2-2-0.3-3.8c-0.1-1.8-0.1-2.4-0.2-4.9c-0.1-3-0.2-3-0.3-5.7c-0.1-2.3,0-3,0-4.2
		c1,0.1,2-0.3,2.4-0.5c1.7-0.6,2.7-1.7,4.7-4.3c2.9-3.7,3.3-4.5,6.2-8.3c0.9-1.2,1.4-1.8,2.3-3c1.6-2.2,2.2-3.1,2.8-4.3
		c0.5-1.1,0.9-2,0.8-3.2c0-0.5-0.1-1.7-1-2.8c-0.2-0.2-1.1-1.3-2.6-1.5c-1.2-0.1-2.1,0.3-3.4,1.2c-2.1,1.4-3.4,2.7-5.7,5
		c-3.4,3.4-4,4.1-4.4,4.6c-1.1,1.4-2,2.4-2.7,3.8c-0.1-0.7-0.1-1.4-0.2-2.2c-0.3-3.2-0.5-3.6-0.6-5.4c-0.1-0.9-0.1-1.5-0.1-2.1
		c0.1,0,0.2,0.1,0.2,0.1c1.4,0.5,3-0.6,4.7-1.8c1.9-1.3,2.7-2.5,4.2-4.1c3.2-3.5,3.6-2.7,6.1-5.6c1.6-1.8,2.7-3.8,5-7.8
		c0.6-1,1.2-2.2,1.8-3.9c0.5-1.7,0.6-3.1,0.7-3.8C478.2,38.4,478,37,477.9,36.5z M444.6,42.5c-0.7-1-2.3-1.4-3.4-3.3
		c-1.3-2-1.5-2-3.1-4.7c-2.1-3.5-2.4-5.4-3.3-7.7c-0.5-1.2-0.8-3-0.6-5c0.1-0.6,0.2-1.9,0.9-2.2c1-0.3,2.6,2,3,2.5
		c1.1,1.6,1.3,2.7,2,4.6c0,0,1,2.2,2.8,6.6c1.5,3.4,2.2,5.1,2.5,5.8c0.8,1.6,1.9,4,3.5,6.8L444.6,42.5z M449.5,64.8
		c-0.1,0.4-2.3,0.3-3.8,0c-1.8-0.3-3.2-0.9-4.3-1.4c-2.3-1.1-3.8-2.4-5.5-4c-1-0.9-1.7-1.6-3-3c-0.8-0.8-1.6-1.8-3.3-3.6
		c-2.1-2.4-2.5-2.9-2.8-3.8c-0.4-1.4-0.3-3.2,0.3-3.4c0.2-0.1,0.6,0,1.5,1c1.8,1.8,2.6,3.4,2.6,3.4s1.5,2.8,3.6,5.5
		c1.2,1.6,2.5,3.3,4.8,4.6c1.5,0.9,1.8,0.7,6.1,2.6C449.3,64.4,449.5,64.7,449.5,64.8z M451,87.3c-0.7,0.5-2.4-0.6-6-2.7
		c-3.9-2.3-3.3-2.3-6.1-3.8c-1.6-0.9-2.5-1.3-3.7-2.4c-1-1-0.9-1.3-2.2-2.6c-1.2-1.2-1.9-1.4-2.3-2.5c-0.2-0.6-0.6-1.8-0.2-2.2
		c0.5-0.4,0.8-1.2,3.5-0.1c2.1,0.9,2.8,2.3,4.3,3c1.3,0.6,1.4,0.9,3.4,2.2c2.5,1.6,2.7,1.5,4.8,2.8c2,1.3,3,2,3.7,3
		C451.4,83.8,451.9,86.6,451,87.3z M453.9,38.6c-0.6-0.3,0-3,0.3-4.3c0.2-0.7,0.4-1.8,1.6-5c0.7-2,0.8-2.1,1.5-4.1
		c0.9-2.5,1.3-3.7,1.7-5c0.7-2.6,0.8-4.2,1-4.2c0.2,0,0.3,1.5,0.3,2.7c0.1,1.9,0,3.4,0,4.1c-0.1,2.7-0.2,4-0.4,5.3
		c-0.2,1.1-0.5,2.7-1.3,4.6c-0.2,0.4-0.9,2.1-2.5,4C455.1,37.8,454.3,38.8,453.9,38.6z M457,81.1c0.2-0.6,0.6-1.1,3.3-3.6
		c2.3-2.1,2.4-2.1,3.5-3.3c0.2-0.3,1-1.1,2.5-2.9c0.6-0.7,1.5-1.7,2.9-2.6c1.2-0.8,1.5-0.7,1.6-0.6c0.5,0.3,0.3,1.9-0.1,3
		c-0.7,1.9-1.8,3.2-3.8,5.6c-0.4,0.5-0.1,0.6-3.3,3.7c-1.1,1.1-1.8,1.8-2.7,2.7c-1.3,1.2-2.8,2.7-3.6,2.3
		C456.4,84.9,456.3,82.7,457,81.1z M472.5,43.5c-0.3,2-1.2,4.2-4,7.5c-0.7,0.8-2,2.3-4.6,4.6c-4.4,3.9-8.5,6.5-8.6,6.4
		c-0.1-0.1,0.9-0.8,2.6-2.8c0.5-0.5,0.8-1,1.1-1.3c1.3-1.7,2-2.8,2.8-3.9c1.4-1.9,1.5-1.9,3.6-4.8c1.8-2.4,2.7-3.6,2.9-3.9
		c0.2-0.3,1.2-2.1,3-4c0.4-0.4,0.8-0.9,1.1-0.8C472.9,40.8,472.5,43.2,472.5,43.5z"/>
</g>
<g>
	<path class="st2" d="M549.4,31.2c-0.2-1.7-0.3-2.6-1-3.7c-1.2-1.8-3.2-2.3-3.8-2.5c-2.7-0.7-5,0.3-5.7,0.7c-0.9,0.4-3.5,1.7-4,4.2
		c0,0.1,0,0.2,0,0.3c-1.2-0.5-1.9-0.1-5.8-0.2c-0.8,0-2.2-0.2-5-0.5c-2.6-0.3-3.4-0.4-3.5-0.8c-0.1-0.4,0.6-0.8,2.3-2
		c1.8-1.2,3.3-2.3,4.5-3.3c0.9-0.8,1.5-1.4,1.9-1.8c0.7,0,1.4-0.1,2.1-0.3c0.9-0.3,1.7-1,3.2-2.3c1-0.9,1.5-1.3,1.8-2
		c0.7-1.3,0.5-2.6,0.3-4.2c-0.2-1.7-0.3-2.6-1-3.7c-1.2-1.8-3.2-2.3-3.8-2.5c-2.7-0.7-5,0.3-5.7,0.7c-0.9,0.4-3.5,1.7-4,4.2
		c-0.3,1.2,0.2,2.3,1,4.5c0.4,1,0.7,1.8,1.1,2.5c-0.7,0.4-1.5,1-2.4,1.8c-2.7,2.4-2.6,3-4.8,5c-2.1,1.8-2.4,1.6-3.8,3.2
		c-0.8,0.9-0.9,1.3-2.7,4c-0.2,0.3,0,0-3.3,5c-2.5,3.8-3.3,5-3.7,4.8c-0.3-0.1,0.1-1,0-2.7c-0.1-2.3-0.9-2.4-1.2-4.7
		c-0.2-1.7,0.2-2.7,0-3.4c0.5-0.4,1.1-0.9,1.8-1.6c1-0.9,1.5-1.3,1.8-2c0.7-1.3,0.5-2.6,0.3-4.2c-0.2-1.7-0.3-2.6-1-3.7
		c-1.2-1.8-3.2-2.3-3.8-2.5c-2.7-0.7-5,0.3-5.7,0.7c-0.9,0.4-3.5,1.7-4,4.2c-0.3,1.2,0.2,2.3,1,4.5c0.9,2.3,1.3,3.4,2.5,4.3
		c1,0.7,2.2,1.2,3.4,1.3c0,0.2-0.1,0.3-0.1,0.6c-0.4,2.8,0.8,3.9,1,6.5c0.2,2-0.5,1.4-1,5.7c-0.4,3.1-0.1,4.1-0.7,7
		c-0.2,1.3-0.5,2-0.8,3.3c-1,3.5-1.3,5.3-2.2,9.2c-1.6,7.2-2.2,8.3-3.7,14.7c-0.7,3.2-1.5,7.9-3.2,17.2c0,0-1.1,6.5-1.7,13.8
		c-0.1,0.7,0.1,2.9,0.3,7.2c0.1,2.5,0.3,3.9,1.3,4.7c0.9,0.7,2.5,0.8,3,0.2c0.5-0.6-0.1-1.9-0.3-2.7c-0.6-1.6-0.6-2.8,0.8-10.8
		c1.3-7.7,1.3-6.4,1.8-10.2c0.8-5.2,0.8-6.7,1.8-9.7c1-2.9,2.3-4.9,3-6c0.6-0.8,1.4-2,2.7-3.3c2-2,2.7-1.9,5.8-4.3
		c2.9-2.3,2.8-2.8,4.3-3.3c1.6-0.6,2.3-0.3,4.2-1.1c0.1,0.3,0.3,0.7,0.4,1.1c0.9,2.3,1.3,3.4,2.5,4.3c1.6,1.2,3.8,1.7,5.7,1
		c0.9-0.3,1.7-1,3.2-2.3c1-0.9,1.5-1.3,1.8-2c0.7-1.3,0.5-2.6,0.3-4.2c-0.2-1.7-0.3-2.6-1-3.7c-1.2-1.8-3.2-2.3-3.8-2.5
		c-2.7-0.7-5,0.3-5.7,0.7c-0.7,0.3-2.2,1.1-3.2,2.5c-1.9,0.7-2.7,1.1-2.7,1.1c-2.2,1.1-3.8,2.1-4.8,2.7c-3.5,2-3,1.6-4.2,2.3
		c-3.7,2.3-5.4,4.5-5.8,4.2c-0.3-0.2,0.2-1.3,0.7-2.5c0.3-0.8,0.9-3.2,2-8c0.7-3.1,0.7-3.2,2.2-10c0.6-2.5,0.9-3.8,1.5-5.7
		c1.7-4.7,2.8-5,3.9-5.4c0.4-0.1,1.1-0.2,2.1,0.3c1,0.4,1.4,0.5,2.4,1.2c1.6,1.1,1.6,1.1,4.2,2.3c3.1,1.6,3,2.2,5.5,3.2
		c0.7,0.3,1.5,0.6,2.2,0.7c0.1,0.2,0.2,0.5,0.3,0.8c0.9,2.3,1.3,3.4,2.5,4.3c1.6,1.2,3.8,1.7,5.7,1c0.9-0.3,1.7-1,3.2-2.3
		c1-0.9,1.5-1.3,1.8-2c0.7-1.3,0.5-2.6,0.3-4.2c-0.2-1.7-0.3-2.6-1-3.7c-1.2-1.8-3.2-2.3-3.8-2.5c-2.7-0.7-5,0.3-5.7,0.7
		c-0.7,0.4-2.6,1.3-3.5,3c-0.3-0.2-0.7-0.4-1.1-0.7c-1.1-0.7-0.3-0.2-4.2-2.8c-2-1.3-2.5-1.6-3.3-2.3c-1.8-1.5-2.7-2.2-2.7-3.2
		c0-1.2,1.3-2.2,2.8-3.3c0.7-0.5,1.4-1,2.3-1.3c1.5-0.5,2.7-0.3,4.5,0c0,0,2.9,0.4,5.8,0.7c3.6,0.3,2.7-0.1,6.3,0.2
		c0.4,0,0.8,0.1,1.1,0.1c0.8,2.2,1.3,3.3,2.4,4.2c1.6,1.2,3.8,1.7,5.7,1c0.9-0.3,1.7-1,3.2-2.3c1-0.9,1.5-1.3,1.8-2
		C549.7,34.1,549.5,32.8,549.4,31.2z M527.1,11.7c0.3-0.7,0.5-1,0.9-1.3c0.7-0.6,1.6-0.5,2.2-0.5c0.6,0,1.6,0.1,2.3,0.8
		c0.8,0.7,0.9,1.6,1,2c0.1,0.5,0.2,1.8-0.7,2.9c-0.2,0.2-1,1.2-2.3,1.4c-0.2,0-1.8,0.2-3-0.9c-0.2-0.2-0.9-0.9-1-1.9
		C526.4,13.2,526.8,12.5,527.1,11.7z M518.6,68.3c0.3-0.7,0.5-1,0.9-1.3c0.7-0.6,1.6-0.5,2.2-0.5c0.6,0,1.6,0.1,2.3,0.8
		c0.8,0.7,0.9,1.6,1,2c0.1,0.5,0.2,1.8-0.7,2.9c-0.2,0.2-1,1.2-2.3,1.4c-0.2,0-1.8,0.2-3-0.9c-0.2-0.2-0.9-0.9-1-1.9
		C517.9,69.8,518.2,69.1,518.6,68.3z M499.6,28.3c-0.2,0-1.8,0.2-3-0.9c-0.2-0.2-0.9-0.9-1-1.9c-0.1-0.9,0.2-1.6,0.6-2.4
		c0.3-0.7,0.5-1,0.9-1.3c0.7-0.6,1.6-0.5,2.2-0.5c0.6,0,1.6,0.1,2.3,0.8c0.8,0.7,0.9,1.6,1,2c0.1,0.5,0.2,1.8-0.7,2.9
		C501.8,27.1,501,28.1,499.6,28.3z M529,49.3c0.3-0.7,0.5-1,0.9-1.3c0.7-0.6,1.6-0.5,2.2-0.5c0.6,0,1.6,0.1,2.3,0.8
		c0.8,0.7,0.9,1.6,1,2c0.1,0.5,0.2,1.8-0.7,2.9c-0.2,0.2-1,1.2-2.3,1.4c-0.2,0-1.8,0.2-3-0.9c-0.2-0.2-0.9-0.9-1-1.9
		C528.3,50.8,528.6,50.1,529,49.3z M545.5,34.8c-0.2,0.2-1,1.2-2.3,1.4c-0.2,0-1.8,0.2-3-0.9c-0.2-0.2-0.9-0.9-1-1.9
		c-0.1-0.9,0.2-1.6,0.6-2.4c0.3-0.7,0.5-1,0.9-1.3c0.7-0.6,1.6-0.5,2.2-0.5c0.6,0,1.6,0.1,2.3,0.8c0.8,0.7,0.9,1.6,1,2
		C546.2,32.4,546.3,33.7,545.5,34.8z"/>
</g>
<path class="st2" d="M22.7,25.2c-2.1-0.3-3-1.2-3.5-1.8c-0.7-1.1-0.3-1.7-1.2-3.2c-0.3-0.5-1.2-1.9-2.7-2.3
	c-0.6-0.2-1.8-0.3-1.8-0.3l0,0c0,0-1.1,0.9-1.2,1.8c-0.1,0.6,0.3,1.1,0.8,1.8c0.4,0.5,0.8,0.9,1.8,1.8c1.8,1.6,1.9,1.4,2.3,2
	c0.9,1,0.6,1.2,1.5,2.3c0.9,1,1.2,1,2,2c0.2,0.2,0.6,0.9,1,1.8c0.3,0.9,0.4,1.6,0.5,3.2c0.1,1.5,0.1,2.3,0.2,4.2
	c0.1,2.2,0.1,3.3,0.2,3.7c0.2,1.3,0.4,2,0.2,2.2c-0.3,0.2-0.7-0.3-1.8-1.2c-1.8-1.3-2.2-1.5-3-2.3c-1.1-1.1-1.4-1.7-1.7-2.3
	c-0.4-0.7-0.2-0.7-0.8-2.2c-0.5-1.3-0.8-2.1-1.3-2.8c-0.4-0.7-1-1.2-2.2-2.3c-0.4-0.4-0.9-0.8-3.5-3c-1.7-1.4-2.2-1.8-3.2-2
	c-0.4-0.1-1.5-0.3-2,0.3c-0.7,0.8,0.2,2.5,0.5,3c0.5,0.9,0.9,1.2,2.7,3c1.5,1.5,2.3,2.3,2.8,3c0.2,0.3,0.6,0.8,2,3.2
	c1.8,3,1.4,3.2,2.5,4.3c1.8,1.8,2.2,2.4,3.4,2.9c0.5,0.2,1.4,0.9,2.2,1.1c0.4,0.1,1.3,0.4,2,1.2c0.2,0.2,0.5,0.6,0.8,1.5
	c0.4,0.9,0.4,1.6,0.7,3.8c0.1,1.1,0.2,2.1,0.3,3.2c0.3,2.3,0.4,2.7,0.2,2.8c-0.5,0.3-1.8-0.9-5-3.7c-4.2-3.6-5.3-3.6-6.4-4.9
	c-2.1-2.5-1.9-2.5-3.6-3.9c-2.2-1.8-2.5-3.5-3.7-3.6c-1.1-0.1-2.5,0.3-3,1.1c-0.4,0.5,0.5,2,0.8,2.6c0.6,0.9,1.2,1.4,2.4,2.7
	c1.1,1.2,1.1,1.2,2.1,2.2c0.9,0.9,1.4,1,2.9,3.1c1.3,1.7,2.7,1.7,3.4,2.5c3.2,3.6,5.5,2.9,8,6.3c1,1.3,1.6,2.7,1.8,3.3
	c0.2,0.5,0.9,2.1,1.3,4.7c0.5,3.1,0,3.5,0.5,7c0.4,2.7,0.9,3.8,0.5,4c-0.6,0.3-2-2.2-5.5-5.3c-2.1-1.9-2.2-1.6-5.7-4.5
	c-0.7-0.6-2-1.7-4.5-4c-2.9-2.6-4.3-3.9-4.7-4.3c-1.3-1.7-1.7-2.9-2.7-2.8c-0.8,0-1.6,1.1-1.8,2c-0.3,1.4,0.7,2.7,1.5,3.7
	c1.2,1.5,1.8,1.4,4,3.3c0.2,0.1,1.1,1.1,3,3c2.3,2.3,2.4,2.4,2.8,2.8c0.3,0.2,0.7,0.6,3.3,3c2.6,2.3,2.7,2.4,3.3,3
	c1.4,1.4,1.3,1.5,2.7,2.8c1.5,1.4,1.8,1.5,2.8,2.7c0.9,1,1.6,1.7,2,2.7c0.8,1.6,0.3,2.6,0.2,6.2c0,0.6,0,2.3,0,5.8
	c0,5.3,0.2,5.1,0,6.2c-0.3,1.8-0.7,2.9-0.7,5.2c0,1.2,0,2.8,0.7,3c0.7,0.2,2,0.1,2.7-1.3c0.7-1.4,0.5-3.6,0.8-7.3
	c0,0,0.2-1.7,0.5-5.2c0.5-4.7,0.5-4.6,0.5-5.3c0.1-2.6-0.2-2.8-0.2-6.3c0-2.6,0.2-3.5,0.3-4.2c0.2-1.1,0.6-2.3,1.3-3.8
	c1.3-2.7,2.5-3.6,4.8-6.7c2.5-3.3,2.1-3.5,5.5-8c1.7-2.3,2.6-3.4,3.3-4.2c2.4-2.3,4-2.6,5-4.8c0.2-0.5,1.2-2.6,0.2-3.7
	c-0.5-0.6-1.6-0.8-2.3-0.5c-0.7,0.3-1.1,0.9-1.5,1.7c0,0-0.9,1.6-2.5,3.8c-0.4,0.5-0.4,0.5-3.3,3.5c-1.9,2-2.9,3-3.2,3.3
	c-1.6,2.1-1.3,2.7-2.8,4.7c-1.3,1.6-1.6,1.4-2.8,2.8c-2.4,2.9-2.6,5.6-3.2,5.5c-0.9-0.1-1-6.2-1-8.2c0-1.5,0-2,0-4
	c0-2.3-0.1-2.7,0-3.7c0.1-0.7,0.3-2.3,1.3-4c0.7-1.3,1.1-1.1,2.8-3.2c1.5-1.8,1.4-2,2.8-3.7c0.6-0.7,1.5-1.5,3.2-3.2
	c2.6-2.5,3.2-3,4-4.2c0.9-1.3,1.6-2.4,1.3-3.7c-0.3-1.4-1-2.2-1.7-2c-0.5,0.1-2.1,0.3-2.6,1.4c-0.6,1.4-0.1,1.6-2.4,4.3
	c-2,2.4-1.7,2.6-2.8,3.5c-1.4,1.2-1.8,0.9-3,2.2c-1.2,1.2-2.1,2.8-2.3,3.2c-0.8,1.4-0.9,2-1.2,2c-0.5-0.1-0.6-2.3-0.7-5.2
	c-0.1-1.9-0.1-2.8,0-3.8c0.1-0.6,0.3-2.5,1.2-4.7c0.3-0.8,0.9-2.4,2.2-4c1.5-1.9,2-1.7,3.5-3.8C35,35.4,35,35,36,33.7
	c0.8-1,1.5-1.8,2.2-2.5c2.1-2.2,2.8-2.4,3.8-4c0.8-1.1,1.3-2,1-2.8c-0.3-0.8-1.4-1.3-2.3-1.2c-1,0.2-1.5,1-2,1.7
	C37,27.2,37.8,25.3,34,30c-2.8,3.5-2.4,3.5-3.8,4.8c-1,1-1.7,1.4-2.3,2.5c-1.1,1.9-1,3.7-1.2,3.7c-0.2,0-0.5-2.4-0.2-5.3
	c0.2-2.4,0.6-2.7,0.7-4.8c0.1-2.6-0.5-2.6-0.2-3.8c0.5-2.1,2-2,3.7-5.2c0.5-1,0.6-1.4,1.3-2.5c0.7-1,1.4-1.8,2-2.5
	c1.8-2,2.3-2.1,2.3-2.8c0.1-1.1-1-2.3-2.2-2.5c-1-0.1-1.8,0.5-2.3,1c-0.9,0.7-1,1.3-2.7,4.2c-0.5,0.9-0.5,0.8-1.2,2
	c-0.9,1.6-1.3,2.3-1.7,3c-0.7,1.4-0.6,1.5-1,2C24.6,24.7,23.5,25,22.7,25.2z"/>
<path class="st1" d="M90.4,61.9c-1.6-1.7-4.3-1.3-6.8-1c-3.3,0.4-4.6,1-6.2,2c0.2-0.3,0.2-0.4,0.6-0.9c1-1.1,1.2-0.6,2.9-1.4
	c2.1-0.9,4.2-2.4,5.1-3.4c0.8-1,2-2.4,2.8-4.2c1.3-2.6,1-3.4,0.9-4.8c0-0.5,0.2-2.6-1.6-3.8c-1-0.7-2.8-1.5-5.4-1.3
	c-3.5,0.2-5,1.6-5.4,2c-0.3,0.3-0.5,0.6-0.6,0.8c-0.1-0.1-0.2-0.1-0.3-0.2c0.1-0.3,0.2-0.6,0.4-0.9c0.9-1.4,2.1-1.3,4.7-2.4
	c2-0.8,4.3-1.9,5.7-4.2c0.4-0.8,1.3-1.8,1.7-4.1c0.5-2.5,0.2-3.9-0.2-5.2c-0.1-0.4-0.6-1.5-2.2-2c-0.4-0.1-1.2-0.9-4.7,0.6
	c-0.9,0.4-1.5,0.7-2.1,1c0.2-0.1,0.4-0.3,0.6-0.4c2-1.4,3.1-2.1,3.8-2.8c1.6-1.7,2.4-3.3,3.2-5c1.1-2.4,1.7-3.6,1.3-5.2
	c-0.3-1.6-1.3-2.6-1.7-3c-0.4-0.4-1.3-1.4-2.8-1.8c-0.5-0.1-1.6-0.5-3-0.2c-1.6,0.4-2.7,1.5-3.3,2.2c-1.3,1.4-1.4,2.3-2,2.3
	c-0.9,0-0.8-2.2-2.7-3.8c-1.9-1.7-4.5-1.5-5-1.5c-0.7,0.1-1.6,0.2-2.5,0.8c-1,0.8-1.3,1.9-1.5,2.7c-0.4,1.6-0.2,2.9,0,3.7
	c0.3,1.4,0.8,2.4,1.2,3c0.2,0.3,0.7,1.3,1.7,2.3c0.7,0.8,1.1,1,2.3,2.2c0.8,0.8,1.6,1.5,2,2c0.1,0.1,0.4,0.5,0.8,1
	c1.5,1.9,1.8,3,2.2,3.6c-0.9-0.7-1.1-2.4-2.9-3.9c-1.8-1.6-4-1.8-4.8-1.8c-1.4-0.1-3.7-0.3-5.2,1.3c-1.9,2.1-1.2,6-0.2,8.4
	c1.4,3.1,4.1,4.7,6.3,6c3,1.8,5.6,2.3,6.9,4c-1.3-0.9-2.5-1.5-3.5-1.9c-2.4-1.1-4.2-1.9-6.4-1.6c-0.8,0.1-2.7,0.4-3.8,1.9
	c-0.8,1.2-0.6,2.6-0.3,4.3c0.4,2.7,1.6,4.6,2,5.1c0.7,1,1.7,1.9,3.8,3.6c2.4,2,3.7,3.1,4.9,3.8c0.8,0.4,1.7,0.9,2.6,1.8
	c1,1.1,0.8,0.9,0.8,0.9c0.2,0.3-0.1,0.2,0,0.3c-0.9-0.8-1.2-0.8-2.9-1.6c-2.2-1.1-4.3-2.1-6.3-1.3c-1.7,0.7-2.4,2.4-3,3.7
	c-0.3,0.7-1,2.5-0.8,4.8c0.2,1.8,0.9,3.1,1.3,3.8c0.7,1.2,1.4,2,2.3,2.8c1.1,1.1,1.3,1.1,3.5,2.9c1.9,1.6,1.7,1.6,3.1,2.7
	c1.3,1,1.6,1.1,2.6,2c0.6,0.5,0.9,0.9,1.1,1.1c0.1,0.7,0.1,1.5,0.1,2.4c0,2.3-0.2,2.3-0.1,4.4c0.1,2.5-0.3,4-0.2,5.8
	c0.1,2.1,0.4,1.1-0.1,4.8c-0.6,4,0,3.8-0.6,7.4c-0.1,0.9-0.4,2.3-0.4,4.3c0,2.7,0.6,3.3,0.9,3.5c0.8,0.6,2.1,0.5,2.9-0.1
	c1.1-0.8,1-2.4,1-4.9c0-2.5,0.2-5,0.3-7.5c0-6,0.2-5.4,0.1-9.6c-0.1-4.5-0.3-3.9-0.3-7.3c0-1.8,0.1-2.9,0-4.1
	c0.3-0.2,0.7-0.5,1.1-0.8c2.4-1.8,3.6-2.6,4.2-3.3c0.5-0.5,1.8-1,3.8-3.6c2.4-3.2,2.8-4.8,3.1-5.6C91,68.6,92.5,64.2,90.4,61.9z"/>
<g>
	<path class="st3" d="M140.3,50.7c0,1.7,0.6,3.4,1.7,5.1s3.9,4.3,8.5,7.7c8.8,6.5,14.6,11.8,17.5,15.8c2.9,4,4.3,8.3,4.3,12.8
		c0,6.4-2.4,11.4-7.1,15c-4.7,3.6-9.9,5.4-15.5,5.4c-4,0-8.1-0.9-12.3-2.6c-4.2-1.7-6.3-3.6-6.3-5.5c0-0.5,0-1.4,0.1-2.7
		c0.1-1.3,0.1-2.9,0.1-4.9c0-0.7-0.1-1.5-0.2-2.5c-0.1-1-0.2-1.6-0.2-1.9c0-1.3,0.7-1.9,2.1-1.9c1.6,0,2.4,1.3,2.6,3.8
		c0.4,4.1,1.8,7.3,4.1,9.7c2.4,2.3,5.7,3.5,9.9,3.5c4.2,0,7.8-1.3,10.5-3.8c2.8-2.5,4.2-5.8,4.2-9.9c0-2.4-0.9-5-2.8-7.8
		c-1.9-2.7-6.8-7.1-14.7-13c-3.3-2.4-5.9-4.5-7.7-6.2c-1.9-1.7-3.5-3.7-4.7-6.1c-1.3-2.3-1.9-5-1.9-8c0-4.8,2.1-8.9,6.2-12
		s9-4.8,14.4-4.8c3.1,0,6.4,0.8,9.9,2.4c3.5,1.6,5.3,3.5,5.3,5.7c0,0.3,0,0.8,0,1.4c0,0.7,0,1.6,0,2.9c0,0.3,0.1,1,0.2,2
		c0,2.2-0.7,3.4-2.2,3.4c-0.5,0-1-0.3-1.5-0.8c-0.5-0.5-0.8-1.1-0.8-1.7c0-3.3-1.1-5.8-3.2-7.6s-4.7-2.7-7.8-2.7c-3.5,0-6.5,1-9,3
		C141.6,46.1,140.3,48.3,140.3,50.7z"/>
	<path class="st3" d="M230.3,37.2c1.1,0,2,1.2,2.7,3.6c0.7,2.4,1,4.6,1,6.7c0,2.1-0.6,3.1-1.9,3.1c-0.5,0-0.9-0.2-1.2-0.5
		c-0.4-0.3-0.9-1.4-1.5-3.2c-0.7-1.8-1.6-3.1-2.9-3.7c-1.3-0.7-2.7-1-4.3-1c-2.2,0-3.8,0.5-4.7,1.6c-1,1.1-1.5,2.8-1.5,5.2v53.8
		c0,0.8,0.2,1.5,0.7,2.2c0.5,0.6,1.4,1.2,2.9,1.6c1.5,0.5,2.4,0.9,2.7,1.2c0.3,0.3,0.5,0.7,0.5,1.2c0,1.8-0.9,2.7-2.6,2.7
		c-1,0-2.4-0.2-4.2-0.5c-1.9-0.3-3.2-0.5-4.1-0.5c-0.8,0-2.1,0.1-3.7,0.4c-1.6,0.3-2.8,0.4-3.7,0.4c-1,0-1.8-0.2-2.6-0.7
		c-0.7-0.5-1.1-1.1-1.1-2c0-0.4,0.1-0.8,0.4-1.1c0.3-0.3,1.1-0.7,2.6-1.2c1.4-0.5,2.4-1.2,2.9-2.1c0.5-0.9,0.7-2,0.7-3.2V46.8
		c0-3.3-2.1-4.9-6.3-4.9c-2.7,0-4.7,0.6-5.8,1.9c-0.7,0.8-1.2,1.9-1.5,3.5s-0.7,2.5-1,2.8c-0.3,0.3-0.8,0.4-1.2,0.4
		c-0.5,0-1-0.1-1.5-0.4c-0.5-0.3-0.7-0.7-0.7-1.1c0-3.7,0.3-6.6,0.9-8.7c0.6-2.1,1.5-3.1,2.7-3.1H230.3z"/>
	<path class="st3" d="M257.5,48.1c0-2-0.4-3.3-1.1-4c-0.7-0.7-1.7-1.3-2.8-1.6c-1.1-0.4-1.9-0.7-2.4-1c-0.4-0.3-0.7-1-0.7-1.9
		c0-0.5,0.2-0.9,0.6-1.3c0.4-0.3,0.9-0.5,1.5-0.5c1,0,2.5,0.2,4.5,0.5c2,0.3,3.6,0.5,4.6,0.5c1,0,2.4-0.2,4.3-0.5
		c1.9-0.3,3.3-0.5,4.2-0.5c1.6,0,2.4,0.7,2.4,2.1c0,0.9-0.2,1.4-0.6,1.7c-0.4,0.3-1.3,0.6-2.6,0.8c-1.3,0.3-2.2,1-2.8,2.1
		c-0.6,1.2-0.9,2.9-0.9,5.1v52.6c0,1,0.2,1.8,0.7,2.6c0.4,0.8,1.4,1.4,2.9,1.8c1.5,0.4,2.4,0.9,2.7,1.3c0.3,0.5,0.5,1,0.5,1.6
		c0,1.2-1,1.9-3,1.9c-0.9,0-2.2-0.2-3.9-0.5c-1.7-0.3-3-0.5-3.9-0.5c-0.8,0-2.1,0.1-3.8,0.4c-1.7,0.3-3,0.4-3.9,0.4
		c-2.4,0-3.6-0.8-3.6-2.4c0-0.4,0.1-0.8,0.4-1.2c0.3-0.3,1.2-0.7,2.7-0.9c1.6-0.3,2.6-1,3.1-2.2c0.5-1.2,0.8-2.5,0.8-3.9V48.1z"/>
	<path class="st3" d="M329.1,106.5c1.2,0,2.2-0.3,3.1-0.9c0.9-0.6,1.5-1.9,1.9-3.9s0.8-3.2,1.3-3.7c0.5-0.4,1.1-0.6,1.7-0.6
		c0.5,0,1,0.3,1.5,0.8c0.5,0.5,0.8,1.3,0.8,2.2c0,2.9,0.2,5.9,0.6,8.8c0,1.8-0.8,2.7-2.5,2.5c-1.1-0.1-2.8-0.2-5.1-0.2h-37.6
		c-3,0-4.4-0.8-4.4-2.4c0-1.1,0.3-1.7,0.8-2c0.5-0.3,1.3-0.5,2.4-0.5c2.1-0.1,3.4-0.7,3.9-1.8c0.5-1,0.8-2.2,0.8-3.5V48.1
		c0-1.3-0.3-2.4-0.9-3.4c-0.6-1-1.8-1.8-3.8-2.5c-1.9-0.6-3.1-1.2-3.5-1.8c-0.4-0.6-0.6-1.2-0.6-1.9c0-0.4,0.2-0.8,0.7-1.2
		c0.5-0.4,1.1-0.6,1.7-0.6c0.4,0,1.5,0.3,3.3,0.9c1.7,0.6,3.6,0.9,5.7,0.9c2.6,0,5.1-0.3,7.4-1c2.3-0.7,3.8-1,4.5-1
		c0.7,0,1.4,0.3,2,0.8c0.6,0.6,0.8,1.2,0.8,1.8c0,0.6-0.2,1-0.5,1.4c-0.3,0.4-1.2,0.7-2.6,1c-1.8,0.4-3.1,0.9-3.8,1.5
		c-1.3,1.1-1.9,3-1.9,5.7v50.9c0,2.5,0.4,4.3,1.1,5.3c0.8,1,1.9,1.5,3.3,1.5H329.1z"/>
	<path class="st3" d="M395.6,106.5c1.2,0,2.2-0.3,3.1-0.9c0.9-0.6,1.5-1.9,1.9-3.9s0.8-3.2,1.3-3.7c0.5-0.4,1.1-0.6,1.7-0.6
		c0.5,0,1,0.3,1.5,0.8c0.5,0.5,0.8,1.3,0.8,2.2c0,2.9,0.2,5.9,0.6,8.8c0,1.8-0.8,2.7-2.5,2.5c-1.1-0.1-2.8-0.2-5.1-0.2h-37.6
		c-3,0-4.4-0.8-4.4-2.4c0-1.1,0.3-1.7,0.8-2c0.5-0.3,1.3-0.5,2.4-0.5c2.1-0.1,3.4-0.7,3.9-1.8c0.5-1,0.8-2.2,0.8-3.5V48.1
		c0-1.3-0.3-2.4-0.9-3.4c-0.6-1-1.8-1.8-3.8-2.5c-1.9-0.6-3.1-1.2-3.5-1.8c-0.4-0.6-0.6-1.2-0.6-1.9c0-0.4,0.2-0.8,0.7-1.2
		c0.5-0.4,1.1-0.6,1.7-0.6c0.4,0,1.5,0.3,3.3,0.9c1.7,0.6,3.6,0.9,5.7,0.9c2.6,0,5.1-0.3,7.4-1c2.3-0.7,3.8-1,4.5-1
		c0.7,0,1.4,0.3,2,0.8c0.6,0.6,0.8,1.2,0.8,1.8c0,0.6-0.2,1-0.5,1.4c-0.3,0.4-1.2,0.7-2.6,1c-1.8,0.4-3.1,0.9-3.8,1.5
		c-1.3,1.1-1.9,3-1.9,5.7v50.9c0,2.5,0.4,4.3,1.1,5.3c0.8,1,1.9,1.5,3.3,1.5H395.6z"/>
</g>
<g>
	<path class="st3" d="M84.5,214.6c-0.8-1.9-1.7-3.6-2.5-5c14.5-2.2,26.4-6.3,35.8-12.2c-1.5-0.7-4-1.8-7.2-3.3
		c-7-3.2-12.6-5.8-17-7.8c3.2-4.8,6-9.2,8.4-13.3H78.4v-4.6h26.4c2.9-5.1,5.6-10.3,8.3-15.6l4.6,1.9c-3.1,5.8-5.7,10.3-7.6,13.7
		h51.6v4.6h-18c-3.6,9.6-9,17.4-16.5,23.5c12.4,5.5,21.8,9.7,28.1,12.7l-2.8,4.6c-12.7-6.1-22.6-10.8-29.6-14
		C113.5,206.2,100.7,211.1,84.5,214.6z M115.1,133.6l4.2-2.2c2.1,3.1,4.5,6.8,7.1,10.9l-3.8,2.1H157v14.6h-4.7v-10.1H88v10.1h-4.8
		v-14.6h38.6C119.6,140.5,117.3,136.9,115.1,133.6z M100.1,184.8c1.2,0.5,3.1,1.4,5.7,2.4c7.1,3.1,12.6,5.4,16.5,7.1
		c7.6-5.8,13.1-12.9,16.3-21.3h-31.2C105.4,176.3,103,180.3,100.1,184.8z"/>
	<path class="st3" d="M188.3,165.8l4.2,1.2c-1.3,2.3-2.4,4-3.2,5.1H220c-0.1,7.4-0.5,15.7-1.2,25c-0.2,10.1-4.7,15-13.6,14.9
		c-2.1,0.1-4.7,0.2-7.9,0.2c-0.2-1.6-0.5-3.1-0.9-4.5c0.9,0.1,1.9,0.2,3.1,0.2c0.6,0,1.3,0,2.1,0c0.7,0,1.7,0,3.1,0
		c6.3,0.5,9.6-3.3,10-11.3c0.4-4,0.7-10.9,0.9-20.8h-29.1c-1.5,1.9-3.3,3.9-5.3,6h4v16.9h21.5v3.8h-25.8v-20.3
		c-0.5,0.5-1.2,1.2-2.2,2.1c-0.5,0.5-0.8,0.8-1,1c-0.8-1-1.8-2-2.9-3.1C180.6,177,185.2,171.5,188.3,165.8z M181.1,136h35.7v28.2
		h-35.7V136z M185.4,139.8v8.5h27.1v-8.5H185.4z M185.4,151.9v8.5h27.1v-8.5H185.4z M209.1,195.4c-2.5-2.4-5.8-5.4-10.1-9.1
		c-2.1,3.3-5.1,6.4-8.9,9.2c-0.9-0.9-1.9-1.9-3.1-2.9c5.7-3.7,9.6-8.6,11.6-14.7l4,0.8c-0.7,1.9-1.4,3.4-1.9,4.4
		c3.5,2.6,7.2,5.6,11.3,9.1L209.1,195.4z M235.2,173.3c0.6-4.3,0.9-10.4,1-18.2h4.4c-0.1,5.5-0.3,10.5-0.6,14.9
		c2.8,17.4,9,30.6,18.6,39.6c-1.6,1.3-2.8,2.5-3.5,3.5c-9.1-9.1-14.8-20.6-16.9-34.3c-1.3,14.2-7.2,26-17.7,35.4
		c-0.7-0.9-1.9-2-3.5-3.5C227.7,201.9,233.8,189.5,235.2,173.3z M224.1,165.3c-1.2-0.7-2.5-1.4-4-2c5.2-8.9,9.3-19.4,12.3-31.4
		l4.4,0.9c-0.1,0.2-0.1,0.4-0.2,0.8c-1.4,4.8-2.5,8.4-3.4,10.8H257v4.3l-5.6,15.1c-0.8-0.3-2.2-0.8-4.2-1.4l5.5-14h-20.9
		C229.3,155,226.7,160.6,224.1,165.3z"/>
	<path class="st3" d="M291.3,132.1h4.6v21.1h11.7v4.3h-11.7v21.8c0.9-0.3,2.3-0.8,4.2-1.4c3.2-1.1,5.6-1.9,7.2-2.4
		c0,0.1,0.1,0.4,0.1,0.9c0.2,1.6,0.4,2.8,0.6,3.6c-4.9,1.5-8.9,2.8-12.1,4v30.6h-4.6v-29c-5.1,1.7-11.1,3.8-18,6.2l-1-5
		c7.5-2.3,13.8-4.3,19-6v-23.3h-10.7c-1.2,6.2-2.4,11.3-3.6,15.2c-1.5-0.8-2.9-1.4-4.3-1.8c2.8-9.4,4.8-19.6,5.9-30.6l4.5,0.6
		c-0.5,5-1.1,9.1-1.7,12.5h9.9V132.1z M302.4,210.2c11-5.6,19.1-11.4,24.3-17.4c-5.7-7.8-9.7-18.1-11.8-30.9
		c-2.3,4.3-4.4,7.9-6.3,10.8c-1.6-1.7-2.8-2.9-3.6-3.4c7.4-10.5,12.9-23,16.5-37.5l4.7,0.9c-1.6,5.5-3.3,10.6-5.1,15.3h32.2v4.3
		h-6.9c-1.9,17.5-6.5,31-13.8,40.6c4.5,5.6,12.1,11,22.6,16.4c-1.3,1.5-2.3,3-3.3,4.5c-9.7-5.5-17.1-11.3-22.3-17.2
		c-5.4,6.2-13.4,12.2-24,18C304.4,212.6,303.3,211.1,302.4,210.2z M319.4,152.4c-0.2,0.4-0.5,1.1-0.9,1.9c-0.3,0.5-0.4,1-0.6,1.2
		c2.6,14.9,6.5,26,11.7,33.4c6.4-8.4,10.4-20.6,12-36.6H319.4z"/>
	<path class="st3" d="M369.4,204.9l-0.8-4.6c3.4-0.7,7-1.5,10.7-2.4v-39h-9.8v-4.1h9.8v-22.7h4.4v22.7h9.8v4.1h-9.8v37.9
		c3.5-0.9,7-1.8,10.7-2.9c0,1.5,0.1,2.9,0.2,4.4C386.2,200.4,377.8,202.6,369.4,204.9z M393.9,170.9H452v4h-40.4
		c-1.3,2.6-2.9,5.1-4.8,7.5h41.6c-0.1,6.9-0.4,13.4-0.9,19.6c-0.4,7.1-4,10.6-10.7,10.7c-2.4,0.1-5.3,0.1-8.5,0.1
		c-0.2-1.4-0.6-3-1.2-4.7c2.6,0.2,5.6,0.3,9.2,0.3c4.3,0.2,6.6-2.1,6.8-6.7c0.3-4.1,0.6-9.2,0.8-15.3h-9.2
		c-2.6,11.9-9.3,21.1-20,27.8c-0.9-1.2-1.9-2.4-3.2-3.6c10.2-6,16.4-14.1,18.6-24.2h-10.3c-4.4,10.6-12.6,18.7-24.4,24.2
		c-0.9-1.4-1.8-2.6-2.8-3.8c11.1-4.9,18.6-11.7,22.6-20.5h-11.7c-2.2,2.3-5,4.7-8.3,7c-0.9-1.3-1.9-2.5-3-3.5
		c6.5-4.1,11.5-9.1,14.8-15h-12.9V170.9z M401.8,135.8h43.2V164h-43.2V135.8z M406.4,139.8v8.2h34.2v-8.2H406.4z M406.4,151.9v8.2
		h34.2v-8.2H406.4z"/>
</g>
</svg>
